<?xml version="1.0" standalone="no"?><!DOCTYPE svg PUBLIC "-//W3C//DTD SVG 1.1//EN" "http://www.w3.org/Graphics/SVG/1.1/DTD/svg11.dtd"><svg t="1765518740903" class="icon" viewBox="0 0 1024 1024" version="1.1" xmlns="http://www.w3.org/2000/svg" p-id="8318" xmlns:xlink="http://www.w3.org/1999/xlink" width="200" height="200"><path d="M0 0h76.8v76.8H0z" fill="#FBC22A" p-id="8319"></path><path d="M66.56 0h76.8v76.8H66.56z" fill="#FBC537" p-id="8320"></path><path d="M138.24 0h76.8v76.8H138.24z" fill="#FCC741" p-id="8321"></path><path d="M209.92 0h76.8v76.8H209.92z" fill="#FBC535" p-id="8322"></path><path d="M281.6 0h76.8v76.8H281.6z" fill="#FBC22A" p-id="8323"></path><path d="M353.28 0h76.8v76.8H353.28z" fill="#FBBD10" p-id="8324"></path><path d="M424.96 0h76.8v76.8H424.96z" fill="#FBC330" p-id="8325"></path><path d="M496.64 0h76.8v76.8H496.64z" fill="#FBC639" p-id="8326"></path><path d="M568.32 0h76.8v76.8h-76.8z" fill="#FBC432" p-id="8327"></path><path d="M640 0h76.8v76.8h-76.8z" fill="#FBC639" p-id="8328"></path><path d="M711.68 0h76.8v76.8h-76.8z" fill="#FBC639" p-id="8329"></path><path d="M783.36 0h76.8v76.8h-76.8z" fill="#FBC638" p-id="8330"></path><path d="M855.04 0h76.8v76.8h-76.8z" fill="#FBC63A" p-id="8331"></path><path d="M926.72 0h97.28v76.8h-97.28z" fill="#FBC32D" p-id="8332"></path><path d="M0 66.56h76.8v76.8H0z" fill="#FCCC59" p-id="8333"></path><path d="M66.56 66.56h76.8v76.8H66.56z" fill="#FCCC55" p-id="8334"></path><path d="M138.24 66.56h76.8v76.8H138.24z" fill="#F5CD7D" p-id="8335"></path><path d="M209.92 66.56h76.8v76.8H209.92z" fill="#E8BF65" p-id="8336"></path><path d="M281.6 66.56h76.8v76.8H281.6z" fill="#FCC657" p-id="8337"></path><path d="M353.28 66.56h76.8v76.8H353.28z" fill="#FCB361" p-id="8338"></path><path d="M424.96 66.56h76.8v76.8H424.96z" fill="#FDB68C" p-id="8339"></path><path d="M496.64 66.56h76.8v76.8H496.64z" fill="#FEB590" p-id="8340"></path><path d="M568.32 66.56h76.8v76.8h-76.8z" fill="#FDB190" p-id="8341"></path><path d="M640 66.56h76.8v76.8h-76.8z" fill="#FDB572" p-id="8342"></path><path d="M711.68 66.56h76.8v76.8h-76.8z" fill="#FCC553" p-id="8343"></path><path d="M783.36 66.56h76.8v76.8h-76.8z" fill="#FDD376" p-id="8344"></path><path d="M855.04 66.56h76.8v76.8h-76.8z" fill="#FDD272" p-id="8345"></path><path d="M926.72 66.56h97.28v76.8h-97.28z" fill="#FCCD5E" p-id="8346"></path><path d="M0 138.24h76.8v76.8H0z" fill="#FCC740" p-id="8347"></path><path d="M66.56 138.24h76.8v76.8H66.56z" fill="#FCD069" p-id="8348"></path><path d="M138.24 138.24h76.8v76.8H138.24z" fill="#B19365" p-id="8349"></path><path d="M209.92 138.24h76.8v76.8H209.92z" fill="#77554D" p-id="8350"></path><path d="M281.6 138.24h76.8v76.8H281.6z" fill="#F9B8A8" p-id="8351"></path><path d="M353.28 138.24h76.8v76.8H353.28z" fill="#FEB2B2" p-id="8352"></path><path d="M424.96 138.24h76.8v76.8H424.96z" fill="#FFB3B3" p-id="8353"></path><path d="M496.64 138.24h76.8v76.8H496.64z" fill="#FEB2B2" p-id="8354"></path><path d="M568.32 138.24h76.8v76.8h-76.8z" fill="#FEAEAE" p-id="8355"></path><path d="M640 138.24h76.8v76.8h-76.8z" fill="#FEB2B2" p-id="8356"></path><path d="M711.68 138.24h76.8v76.8h-76.8z" fill="#FEAC97" p-id="8357"></path><path d="M783.36 138.24h76.8v76.8h-76.8z" fill="#FCBF46" p-id="8358"></path><path d="M855.04 138.24h76.8v76.8h-76.8z" fill="#FCCC56" p-id="8359"></path><path d="M926.72 138.24h97.28v76.8h-97.28z" fill="#FCCA4D" p-id="8360"></path><path d="M0 209.92h76.8v76.8H0z" fill="#FBC32B" p-id="8361"></path><path d="M66.56 209.92h76.8v76.8H66.56z" fill="#FCC73E" p-id="8362"></path><path d="M138.24 209.92h76.8v76.8H138.24z" fill="#CF9E47" p-id="8363"></path><path d="M209.92 209.92h76.8v76.8H209.92z" fill="#EEC4BD" p-id="8364"></path><path d="M281.6 209.92h76.8v76.8H281.6z" fill="#FED5D0" p-id="8365"></path><path d="M353.28 209.92h76.8v76.8H353.28z" fill="#FECBC8" p-id="8366"></path><path d="M424.96 209.92h76.8v76.8H424.96z" fill="#FFB3B3" p-id="8367"></path><path d="M496.64 209.92h76.8v76.8H496.64z" fill="#FEB2B2" p-id="8368"></path><path d="M568.32 209.92h76.8v76.8h-76.8z" fill="#FEAFAF" p-id="8369"></path><path d="M640 209.92h76.8v76.8h-76.8z" fill="#F3ABAA" p-id="8370"></path><path d="M711.68 209.92h76.8v76.8h-76.8z" fill="#997154" p-id="8371"></path><path d="M783.36 209.92h76.8v76.8h-76.8z" fill="#9D7248" p-id="8372"></path><path d="M855.04 209.92h76.8v76.8h-76.8z" fill="#B99136" p-id="8373"></path><path d="M926.72 209.92h97.28v76.8h-97.28z" fill="#FBC229" p-id="8374"></path><path d="M0 281.6h76.8v76.8H0z" fill="#FBBD10" p-id="8375"></path><path d="M66.56 281.6h76.8v76.8H66.56z" fill="#FBBD10" p-id="8376"></path><path d="M138.24 281.6h76.8v76.8H138.24z" fill="#FCB263" p-id="8377"></path><path d="M209.92 281.6h76.8v76.8H209.92z" fill="#FEB4B2" p-id="8378"></path><path d="M281.6 281.6h76.8v76.8H281.6z" fill="#FEA9A9" p-id="8379"></path><path d="M353.28 281.6h76.8v76.8H353.28z" fill="#FEB3B3" p-id="8380"></path><path d="M424.96 281.6h76.8v76.8H424.96z" fill="#FEAEAE" p-id="8381"></path><path d="M496.64 281.6h76.8v76.8H496.64z" fill="#FEB2B2" p-id="8382"></path><path d="M568.32 281.6h76.8v76.8h-76.8z" fill="#FEADAD" p-id="8383"></path><path d="M640 281.6h76.8v76.8h-76.8z" fill="#EBA29F" p-id="8384"></path><path d="M711.68 281.6h76.8v76.8h-76.8z" fill="#7D602E" p-id="8385"></path><path d="M783.36 281.6h76.8v76.8h-76.8z" fill="#7B5E2D" p-id="8386"></path><path d="M855.04 281.6h76.8v76.8h-76.8z" fill="#896827" p-id="8387"></path><path d="M926.72 281.6h97.28v76.8h-97.28zM0 353.28h76.8v76.8H0z" fill="#FBBD10" p-id="8388"></path><path d="M66.56 353.28h76.8v76.8H66.56z" fill="#FBBD10" p-id="8389"></path><path d="M138.24 353.28h76.8v76.8H138.24z" fill="#FDA98A" p-id="8390"></path><path d="M209.92 353.28h76.8v76.8H209.92z" fill="#FDBBB8" p-id="8391"></path><path d="M281.6 353.28h76.8v76.8H281.6z" fill="#FAB6B2" p-id="8392"></path><path d="M353.28 353.28h76.8v76.8H353.28z" fill="#FEB0B0" p-id="8393"></path><path d="M424.96 353.28h76.8v76.8H424.96z" fill="#FDA1A0" p-id="8394"></path><path d="M496.64 353.28h76.8v76.8H496.64z" fill="#FCABAB" p-id="8395"></path><path d="M568.32 353.28h76.8v76.8h-76.8z" fill="#FEA8A8" p-id="8396"></path><path d="M640 353.28h76.8v76.8h-76.8z" fill="#FEAAAA" p-id="8397"></path><path d="M711.68 353.28h76.8v76.8h-76.8z" fill="#89625C" p-id="8398"></path><path d="M783.36 353.28h76.8v76.8h-76.8z" fill="#8D6A39" p-id="8399"></path><path d="M855.04 353.28h76.8v76.8h-76.8z" fill="#EFAB52" p-id="8400"></path><path d="M926.72 353.28h97.28v76.8h-97.28z" fill="#FBBD13" p-id="8401"></path><path d="M0 424.96h76.8v76.8H0z" fill="#FBBE16" p-id="8402"></path><path d="M66.56 424.96h76.8v76.8H66.56z" fill="#FBB92C" p-id="8403"></path><path d="M138.24 424.96h76.8v76.8H138.24z" fill="#FC9E9B" p-id="8404"></path><path d="M209.92 424.96h76.8v76.8H209.92z" fill="#D7BCAC" p-id="8405"></path><path d="M281.6 424.96h76.8v76.8H281.6z" fill="#E6C3B6" p-id="8406"></path><path d="M353.28 424.96h76.8v76.8H353.28z" fill="#FEB6B4" p-id="8407"></path><path d="M424.96 424.96h76.8v76.8H424.96z" fill="#FCBCB8" p-id="8408"></path><path d="M496.64 424.96h76.8v76.8H496.64z" fill="#EFBCB6" p-id="8409"></path><path d="M568.32 424.96h76.8v76.8h-76.8z" fill="#FEA2A1" p-id="8410"></path><path d="M640 424.96h76.8v76.8h-76.8z" fill="#FEADAD" p-id="8411"></path><path d="M711.68 424.96h76.8v76.8h-76.8z" fill="#F9A8A7" p-id="8412"></path><path d="M783.36 424.96h76.8v76.8h-76.8z" fill="#E7A2A1" p-id="8413"></path><path d="M855.04 424.96h76.8v76.8h-76.8z" fill="#FDAF7E" p-id="8414"></path><path d="M926.72 424.96h97.28v76.8h-97.28z" fill="#FCCE50" p-id="8415"></path><path d="M0 496.64h76.8v76.8H0z" fill="#FBBD1A" p-id="8416"></path><path d="M66.56 496.64h76.8v76.8H66.56z" fill="#FDA878" p-id="8417"></path><path d="M138.24 496.64h76.8v76.8H138.24z" fill="#FA9897" p-id="8418"></path><path d="M209.92 496.64h76.8v76.8H209.92z" fill="#DAB98F" p-id="8419"></path><path d="M281.6 496.64h76.8v76.8H281.6z" fill="#D4B589" p-id="8420"></path><path d="M353.28 496.64h76.8v76.8H353.28z" fill="#FEE7E0" p-id="8421"></path><path d="M424.96 496.64h76.8v76.8H424.96z" fill="#F1D2C3" p-id="8422"></path><path d="M496.64 496.64h76.8v76.8H496.64z" fill="#A98854" p-id="8423"></path><path d="M568.32 496.64h76.8v76.8h-76.8z" fill="#CC9E94" p-id="8424"></path><path d="M640 496.64h76.8v76.8h-76.8z" fill="#FEB0B0" p-id="8425"></path><path d="M711.68 496.64h76.8v76.8h-76.8z" fill="#FEA8A8" p-id="8426"></path><path d="M783.36 496.64h76.8v76.8h-76.8z" fill="#FFB3B3" p-id="8427"></path><path d="M855.04 496.64h76.8v76.8h-76.8z" fill="#FEA9A1" p-id="8428"></path><path d="M926.72 496.64h97.28v76.8h-97.28z" fill="#FCC748" p-id="8429"></path><path d="M0 568.32h76.8v76.8H0z" fill="#FCB047" p-id="8430"></path><path d="M66.56 568.32h76.8v76.8H66.56z" fill="#FEA6A6" p-id="8431"></path><path d="M138.24 568.32h76.8v76.8H138.24z" fill="#FE9C9C" p-id="8432"></path><path d="M209.92 568.32h76.8v76.8H209.92z" fill="#E8B497" p-id="8433"></path><path d="M281.6 568.32h76.8v76.8H281.6z" fill="#F3D8C4" p-id="8434"></path><path d="M353.28 568.32h76.8v76.8H353.28z" fill="#FEE9E2" p-id="8435"></path><path d="M424.96 568.32h76.8v76.8H424.96z" fill="#D7B788" p-id="8436"></path><path d="M496.64 568.32h76.8v76.8H496.64z" fill="#BA9248" p-id="8437"></path><path d="M568.32 568.32h76.8v76.8h-76.8z" fill="#DC9885" p-id="8438"></path><path d="M640 568.32h76.8v76.8h-76.8z" fill="#FEADAD" p-id="8439"></path><path d="M711.68 568.32h76.8v76.8h-76.8z" fill="#FEA2A2" p-id="8440"></path><path d="M783.36 568.32h76.8v76.8h-76.8z" fill="#FEACAC" p-id="8441"></path><path d="M855.04 568.32h76.8v76.8h-76.8z" fill="#FEB1B1" p-id="8442"></path><path d="M926.72 568.32h97.28v76.8h-97.28z" fill="#FCB94F" p-id="8443"></path><path d="M0 640h76.8v76.8H0z" fill="#FDAF6C" p-id="8444"></path><path d="M66.56 640h76.8v76.8H66.56z" fill="#FEAAAA" p-id="8445"></path><path d="M138.24 640h76.8v76.8H138.24z" fill="#E3A79F" p-id="8446"></path><path d="M209.92 640h76.8v76.8H209.92z" fill="#E4D5CB" p-id="8447"></path><path d="M281.6 640h76.8v76.8H281.6z" fill="#E6D2C7" p-id="8448"></path><path d="M353.28 640h76.8v76.8H353.28z" fill="#F2DBD2" p-id="8449"></path><path d="M424.96 640h76.8v76.8H424.96z" fill="#FAD5CA" p-id="8450"></path><path d="M496.64 640h76.8v76.8H496.64z" fill="#EFA892" p-id="8451"></path><path d="M568.32 640h76.8v76.8h-76.8z" fill="#FEAAAA" p-id="8452"></path><path d="M640 640h76.8v76.8h-76.8z" fill="#FFB3B3" p-id="8453"></path><path d="M711.68 640h76.8v76.8h-76.8z" fill="#FEA0A0" p-id="8454"></path><path d="M783.36 640h76.8v76.8h-76.8z" fill="#FEABAB" p-id="8455"></path><path d="M855.04 640h76.8v76.8h-76.8z" fill="#FEA7A7" p-id="8456"></path><path d="M926.72 640h97.28v76.8h-97.28z" fill="#FDB06F" p-id="8457"></path><path d="M0 711.68h76.8v76.8H0z" fill="#FCB158" p-id="8458"></path><path d="M66.56 711.68h76.8v76.8H66.56z" fill="#BAB3A2" p-id="8459"></path><path d="M138.24 711.68h76.8v76.8H138.24z" fill="#A7B074" p-id="8460"></path><path d="M209.92 711.68h76.8v76.8H209.92z" fill="#B2A793" p-id="8461"></path><path d="M281.6 711.68h76.8v76.8H281.6z" fill="#A3BA90" p-id="8462"></path><path d="M353.28 711.68h76.8v76.8H353.28z" fill="#EEDAD1" p-id="8463"></path><path d="M424.96 711.68h76.8v76.8H424.96z" fill="#FECDC8" p-id="8464"></path><path d="M496.64 711.68h76.8v76.8H496.64z" fill="#FEAFAF" p-id="8465"></path><path d="M568.32 711.68h76.8v76.8h-76.8z" fill="#FFB3B3" p-id="8466"></path><path d="M640 711.68h76.8v76.8h-76.8z" fill="#FEB1B1" p-id="8467"></path><path d="M711.68 711.68h76.8v76.8h-76.8z" fill="#FE9E9E" p-id="8468"></path><path d="M783.36 711.68h76.8v76.8h-76.8z" fill="#FEAFAF" p-id="8469"></path><path d="M855.04 711.68h76.8v76.8h-76.8z" fill="#FE9999" p-id="8470"></path><path d="M926.72 711.68h97.28v76.8h-97.28z" fill="#FDAD7B" p-id="8471"></path><path d="M0 783.36h76.8v76.8H0z" fill="#D7CD7C" p-id="8472"></path><path d="M66.56 783.36h76.8v76.8H66.56z" fill="#9AAD92" p-id="8473"></path><path d="M138.24 783.36h76.8v76.8H138.24z" fill="#F4A588" p-id="8474"></path><path d="M209.92 783.36h76.8v76.8H209.92z" fill="#F89794" p-id="8475"></path><path d="M281.6 783.36h76.8v76.8H281.6z" fill="#E79F92" p-id="8476"></path><path d="M353.28 783.36h76.8v76.8H353.28z" fill="#979F8A" p-id="8477"></path><path d="M424.96 783.36h76.8v76.8H424.96z" fill="#FEA6A5" p-id="8478"></path><path d="M496.64 783.36h76.8v76.8H496.64z" fill="#FFB3B3" p-id="8479"></path><path d="M568.32 783.36h76.8v76.8h-76.8z" fill="#FEB2B2" p-id="8480"></path><path d="M640 783.36h76.8v76.8h-76.8z" fill="#FEA7A7" p-id="8481"></path><path d="M711.68 783.36h76.8v76.8h-76.8z" fill="#FE9898" p-id="8482"></path><path d="M783.36 783.36h76.8v76.8h-76.8z" fill="#FEA7A1" p-id="8483"></path><path d="M855.04 783.36h76.8v76.8h-76.8z" fill="#FD9985" p-id="8484"></path><path d="M926.72 783.36h97.28v76.8h-97.28z" fill="#FCAD60" p-id="8485"></path><path d="M0 855.04h76.8v76.8H0z" fill="#E3D47D" p-id="8486"></path><path d="M66.56 855.04h76.8v76.8H66.56z" fill="#98B193" p-id="8487"></path><path d="M138.24 855.04h76.8v76.8H138.24z" fill="#F19592" p-id="8488"></path><path d="M209.92 855.04h76.8v76.8H209.92z" fill="#FA9791" p-id="8489"></path><path d="M281.6 855.04h76.8v76.8H281.6z" fill="#E59D91" p-id="8490"></path><path d="M353.28 855.04h76.8v76.8H353.28z" fill="#679077" p-id="8491"></path><path d="M424.96 855.04h76.8v76.8H424.96z" fill="#E99A98" p-id="8492"></path><path d="M496.64 855.04h76.8v76.8H496.64z" fill="#FEAEAE" p-id="8493"></path><path d="M568.32 855.04h76.8v76.8h-76.8z" fill="#FDA4A4" p-id="8494"></path><path d="M640 855.04h76.8v76.8h-76.8z" fill="#FCAC6E" p-id="8495"></path><path d="M711.68 855.04h76.8v76.8h-76.8z" fill="#FDBD75" p-id="8496"></path><path d="M783.36 855.04h76.8v76.8h-76.8z" fill="#FDA87B" p-id="8497"></path><path d="M855.04 855.04h76.8v76.8h-76.8z" fill="#FCB761" p-id="8498"></path><path d="M926.72 855.04h97.28v76.8h-97.28z" fill="#FDC860" p-id="8499"></path><path d="M0 926.72h76.8v97.28H0z" fill="#FED979" p-id="8500"></path><path d="M66.56 926.72h76.8v97.28H66.56z" fill="#E0CFA8" p-id="8501"></path><path d="M138.24 926.72h76.8v97.28H138.24z" fill="#E8A89E" p-id="8502"></path><path d="M209.92 926.72h76.8v97.28H209.92z" fill="#FD928C" p-id="8503"></path><path d="M281.6 926.72h76.8v97.28H281.6z" fill="#E8BFB2" p-id="8504"></path><path d="M353.28 926.72h76.8v97.28H353.28z" fill="#60534B" p-id="8505"></path><path d="M424.96 926.72h76.8v97.28H424.96z" fill="#513D38" p-id="8506"></path><path d="M496.64 926.72h76.8v97.28H496.64z" fill="#734F4A" p-id="8507"></path><path d="M568.32 926.72h76.8v97.28h-76.8z" fill="#654840" p-id="8508"></path><path d="M640 926.72h76.8v97.28h-76.8z" fill="#E5B434" p-id="8509"></path><path d="M711.68 926.72h76.8v97.28h-76.8z" fill="#FED979" p-id="8510"></path><path d="M783.36 926.72h76.8v97.28h-76.8z" fill="#FED979" p-id="8511"></path><path d="M855.04 926.72h76.8v97.28h-76.8z" fill="#FED979" p-id="8512"></path><path d="M926.72 926.72h97.28v97.28h-97.28z" fill="#FED979" p-id="8513"></path><path d="M0 264.704v264.192l11.776-9.728c6.144-5.12 17.408-15.36 25.6-22.016C45.056 489.984 51.2 486.4 51.2 489.472c0 2.56-11.776 14.848-25.6 26.624l-25.6 22.528v130.048c0 71.68 1.024 130.048 2.048 130.048s12.288-4.608 25.088-10.24l23.552-10.24-10.24-22.528c-5.12-12.8-10.752-34.816-11.776-50.176-4.096-56.32 9.216-97.28 51.2-160.768l18.944-28.16-14.848-16.384-14.848-16.384 15.872 14.336 15.36 13.824 11.264-11.776c12.288-13.312 30.72-66.048 44.032-126.976 4.608-21.504 15.36-53.248 23.552-70.656 12.8-26.624 14.336-33.28 9.216-44.032-4.608-10.24-9.216-12.8-25.6-12.8H143.36V46.08h32.768c45.568 0 55.808 9.216 59.392 51.2l2.56 31.232 30.208 12.288 30.72 12.288 26.624-16.896c20.48-12.288 25.6-18.432 21.504-22.528-4.608-4.608-3.584-8.704 3.584-16.384l9.216-10.24 11.264 10.24c12.288 11.776 32.768 10.24 44.032-3.072 4.096-5.12 8.192-5.632 11.776-2.56 3.584 3.072 11.264 4.096 17.408 2.048 9.216-2.048 11.264-6.144 11.264-25.088V46.08h71.68v20.48c0 19.968-0.512 20.48-18.944 20.992-17.92 0-18.432 0.512-6.656 5.12 15.872 6.656 38.4 4.096 38.912-4.608 0.512-3.072 1.024-14.336 1.536-24.064L542.72 46.08h67.584l-2.048 20.48c-1.536 18.432-0.512 20.48 9.216 20.48 18.944 0 82.944 23.552 113.152 41.984 15.872 9.216 39.936 28.16 54.272 41.472l25.6 24.576 13.312-11.776 13.312-11.776-12.288 13.824-11.776 13.824 10.752 14.848c5.632 8.704 10.752 17.408 10.752 20.48 0 2.56 13.824 7.68 30.208 10.752 33.792 6.656 56.832 21.504 56.832 37.376 0 5.632-8.192 24.064-17.92 40.448l-18.432 29.696 13.312 58.88c7.168 32.256 17.92 73.728 24.064 91.136 5.632 17.92 13.824 44.544 17.408 59.392 4.096 14.848 17.92 49.664 31.744 76.8 23.552 48.128 24.064 50.176 24.064 97.792 0 49.152 0 49.152-27.136 104.448-14.848 30.208-26.624 59.904-25.6 65.536 1.536 9.728 3.072 8.704 23.04-8.192 12.288-10.24 30.208-33.28 39.936-50.688l17.92-32.256v-86.016c0-82.944-0.512-87.04-12.8-108.032-12.288-20.48-62.464-174.592-58.368-178.176 1.024-1.024 16.896-7.168 35.328-14.336l33.28-12.288 1.536-208.384L1024 0H0v264.704z m110.08-211.968c9.216 7.68 14.336 18.432 16.384 33.28l3.072 21.504h-20.992c-18.432 0-20.992-1.536-22.528-12.8-2.048-15.36-11.264-17.408-13.312-3.584-1.024 6.656 8.192 19.968 26.624 37.888l28.672 28.16v31.744c0 38.912-5.12 49.152-27.648 56.832-35.328 11.776-61.44-7.168-66.048-47.616L31.744 174.08H51.2c18.944 0 19.968 1.024 23.04 20.48 4.096 23.552 12.8 22.528 12.8-1.024 0-12.8-5.12-20.992-26.624-39.936l-27.136-24.064V97.28c0-28.16 1.536-32.768 14.336-44.032 18.432-15.872 44.544-16.384 62.464-0.512z m168.448 4.608c1.536 6.656 3.072 19.456 3.072 28.672 0 10.24 2.048 15.872 5.12 13.824 3.072-1.536 5.12-9.216 5.12-16.896 0-30.208 5.12-36.864 26.624-36.864 16.896 0 19.456 1.536 17.408 8.704-1.536 5.12-6.656 24.576-11.264 43.52-4.608 19.456-11.264 34.816-14.336 34.816-3.072 0-16.896-3.072-30.72-6.656-24.064-6.144-26.112-7.68-31.232-29.696-14.336-56.32-15.36-50.688 7.168-50.688 16.384 0 20.48 2.048 23.04 11.264z m416.768 10.752l1.536 19.456-24.576-3.072c-35.84-4.608-37.376-5.632-37.376-23.04V45.568l29.696 1.536 29.184 1.536 1.536 19.456z m72.704 13.312v35.84l-29.184-12.288c-16.384-6.656-29.696-14.336-29.184-17.408 0.512-3.072 1.024-13.824 1.536-23.552L711.68 46.08h56.32v35.328z m61.44 9.728c0 28.16 2.048 47.104 6.144 51.2 4.096 4.096 4.608 6.144 0.512 6.144-3.072 0-6.656 3.584-7.68 8.192-1.024 6.144-6.656 3.584-23.04-10.752l-22.016-18.944v-36.864c0-20.48 1.536-38.912 3.584-40.448 1.536-2.048 12.288-3.584 23.04-3.584h19.456v45.056z m58.88-8.192c0 33.28 0.512 34.304 10.24 27.648 10.752-7.168 12.288-19.968 5.632-48.128l-4.096-16.384h41.472l4.096 31.744 3.584 32.256 5.632-30.72 5.12-30.72 21.504-1.536 20.992-1.536-12.8 47.616c-6.656 26.112-14.336 70.656-15.872 98.816l-3.584 51.2-18.944 1.536-19.456 1.536v-32.256c0-32.256-14.336-106.496-20.48-106.496-2.048 0-7.68 4.096-12.288 9.728-6.656 7.68-8.192 17.408-7.168 47.104 1.536 34.816 2.56 37.888 13.312 39.424 9.216 1.536 11.264 5.12 11.264 19.968 0 17.92-0.512 17.92-16.384 14.848-9.216-2.048-17.408-5.632-18.432-8.192-1.024-2.56-9.728-14.848-19.456-27.648l-17.408-23.04V45.568l22.016 1.536 21.504 1.536v34.304zM99.84 445.44c-10.752 11.264-22.528 20.48-25.6 20.48-5.12-0.512 36.864-40.96 42.496-40.96 1.536 0-6.144 9.216-16.896 20.48zM38.912 451.584l14.848 16.896-16.384-14.848c-15.872-14.336-19.456-18.432-15.36-18.432 1.024 0 8.192 7.68 16.896 16.384z" fill="#FFBF13" p-id="8514"></path><path d="M184.32 104.96c0 16.896 2.048 23.04 6.656 21.504 3.584-1.024 6.144-10.24 6.144-21.504s-2.56-20.48-6.144-22.016c-4.608-1.024-6.656 5.12-6.656 22.016zM767.488 261.632c-8.192 15.872-1.536 63.488 11.776 86.016 18.944 32.256 55.296 59.392 55.296 41.984 0-2.56 1.536-8.192 3.072-12.288 1.536-4.608-1.536-8.192-8.192-10.24-6.144-1.536-9.728-5.12-8.192-7.68 3.584-6.144-11.776-27.648-17.92-24.064-2.56 2.048-4.608-5.12-4.608-14.848 0-10.752-3.072-19.456-7.68-22.016-6.144-3.584-6.656-7.168-1.536-20.992 5.632-14.336 5.12-17.408-1.024-21.504-11.264-7.168-14.336-6.144-20.992 5.632zM146.432 756.224c-2.048 5.12-1.024 9.728 2.56 11.264 4.096 1.024 4.096 2.56 0 5.632-8.192 4.608-1.536 30.72 7.68 30.72 13.312 0 32.768-11.776 32.768-19.968 0-10.24-18.944-22.528-26.624-17.92-3.072 2.048-4.096 1.536-2.56-1.536 2.048-3.072 0.512-8.192-3.584-11.264-5.632-4.608-7.68-4.096-10.24 3.072z m19.968 32.256c-1.536 2.56-6.144 5.12-9.216 5.12-3.584 0-3.072-2.048 1.536-5.12 9.728-6.144 11.776-6.144 7.68 0zM329.728 771.072c2.56 7.168 2.048 7.68-4.608 2.048-13.312-11.264-13.312-2.56 0 10.24 10.24 9.728 12.8 10.24 12.8 4.096 0-4.608 1.536-11.776 3.072-16.384 2.048-5.632 0.512-8.192-5.632-8.192-6.144 0-7.68 2.56-5.632 8.192zM886.272 846.336c-8.192 19.968-19.456 36.352-35.84 50.176l-23.552 20.992 17.408-3.072c9.728-1.536 27.648-9.216 39.936-16.384 19.968-11.264 22.016-14.336 21.504-31.744-0.512-10.24-2.048-26.112-4.096-34.304-3.072-14.848-3.584-14.848-15.36 14.336zM788.48 860.672c-14.848 12.8-15.872 14.848-7.168 14.848 11.776 0 29.696-16.896 27.136-24.576-1.024-3.072-10.24 1.536-19.968 9.728zM675.84 902.656c-24.064 20.992-30.208 29.696-32.768 46.08-3.072 16.896-1.536 21.504 7.168 27.648 8.192 6.144 10.752 12.288 9.216 26.624l-1.536 18.432 24.576 1.536c19.456 1.024 24.064 0 20.992-5.12-2.048-3.584-3.584-13.824-3.072-23.552 1.024-11.264-2.048-19.968-8.704-25.6-16.384-14.336-9.216-45.056 14.336-59.392 10.24-6.656 21.504-15.36 25.088-19.456 5.632-6.656 4.096-8.192-9.728-10.24-13.312-2.048-20.48 1.536-45.568 23.04z" fill="#FFBF13" p-id="8515"></path><path d="M198.144 137.216c-14.336 15.36-18.944 40.96-15.872 80.384 4.608 51.712 9.216 53.76 34.816 18.944 12.288-15.872 33.792-40.448 48.128-54.784 14.848-13.824 26.624-26.624 26.624-28.672 0-4.608-40.448-18.944-64-23.04-16.384-2.56-22.528-1.024-29.696 7.168zM730.624 230.912c-14.848 8.704-24.064 33.28-23.552 64.512 1.024 93.696 84.48 178.176 130.56 132.096 9.216-9.216 11.776-16.384 9.728-23.04-2.56-7.68 3.072-17.408 21.504-37.888 30.208-32.768 55.808-79.36 51.2-92.16-6.144-14.848-46.592-29.184-94.72-32.256-24.576-1.536-49.152-6.144-54.784-9.728-11.776-8.192-27.136-8.704-39.936-1.536z m66.56 28.16c1.536 4.096 0.512 13.312-2.56 19.968-4.096 9.216-4.096 13.312 2.048 17.92 4.096 3.584 7.168 11.776 7.168 18.432 0 6.656 4.608 14.336 10.24 17.408 6.144 3.072 10.24 10.752 10.24 17.92 0 9.216 2.56 12.8 10.24 12.8 8.704 0 9.728 2.048 7.168 13.824-4.608 19.456-11.776 22.528-28.16 13.824-16.896-8.704-36.864-33.792-48.128-59.904-7.68-18.944-10.24-57.344-4.608-72.192 4.096-10.752 32.256-10.752 36.352 0zM500.736 423.424c3.584 1.536 8.192 1.024 9.728-0.512 2.048-1.536-1.024-3.072-6.656-2.56-5.632 0-7.168 1.536-3.072 3.072zM256 457.216c0 8.704-29.184 25.6-38.912 22.016-8.192-3.072-9.728 5.12-1.536 9.728 3.072 2.048 4.096 7.168 2.048 12.288-1.536 4.608 2.56 2.048 8.704-5.632 34.304-39.424 75.264-31.232 94.208 19.968l7.68 19.456-3.072-20.48c-4.608-26.112-19.968-47.616-37.376-51.712-7.68-1.536-17.92-4.608-22.528-7.68-6.656-3.072-9.216-2.56-9.216 2.048zM517.12 487.424c0 5.12-6.656 9.216-17.92 11.264-27.648 5.12-25.6 12.288 2.56 9.216 20.992-2.048 29.184 0 44.032 9.728 22.528 15.36 38.4 45.056 43.008 81.408l3.072 28.16 4.608-25.6c2.56-15.36 8.192-28.672 14.848-34.304l10.752-8.704-13.312-0.512c-15.872 0-23.552-19.456-14.848-35.84 4.608-8.192 4.096-9.216-2.56-7.168-7.68 3.072-47.616-14.336-65.024-28.16-8.192-6.144-9.216-6.144-9.216 0.512zM313.856 658.432c14.336 27.648 19.456 29.184 52.224 14.848 36.864-16.384 34.304-22.016-2.56-6.656l-27.136 11.264-15.36-17.92-14.848-17.408 7.68 15.872zM384 819.2c0 8.704 4.608 18.944 10.752 25.088 10.24 9.216 10.752 12.8 6.656 44.544-3.584 26.112-7.168 35.84-14.848 39.936-5.632 3.072-13.312 9.728-16.896 14.336-3.584 5.12-10.24 9.216-14.848 9.216-6.656 0-6.144 2.56 3.072 12.288 7.68 8.192 12.8 21.504 14.336 35.84l3.072 23.552h139.776c109.056 0 140.288-1.536 140.288-6.656 0-3.072 1.536-11.264 3.072-16.896 2.048-7.68-1.024-14.336-8.704-21.504-9.216-9.216-10.752-14.336-7.68-31.232l3.072-20.48-24.064 10.752c-15.36 6.656-38.4 11.264-65.024 12.8-36.864 1.536-45.056 0.512-74.752-12.288-40.96-17.92-62.976-45.568-64.512-80.896-0.512-15.872-4.608-27.136-13.824-38.4-16.384-18.944-18.944-19.456-18.944 0zM207.36 834.56c-1.536 2.56 0.512 5.12 4.608 5.12 4.608 0 8.192-2.56 8.192-5.12 0-3.072-2.048-5.12-4.608-5.12-3.072 0-6.656 2.048-8.192 5.12zM302.08 844.8c0 2.56 3.584 5.12 7.68 5.12s7.68-2.56 7.68-5.12c0-3.072-3.584-5.12-7.68-5.12s-7.68 2.048-7.68 5.12zM266.24 865.792c0 2.56 2.56 3.584 5.12 2.048 3.072-1.536 5.12-4.096 5.12-5.632 0-1.024-2.048-2.048-5.12-2.048-2.56 0-5.12 2.56-5.12 5.632z" fill="#4C3939" p-id="8516"></path><path d="M194.048 136.704c-6.656 8.192-6.144 8.704 2.048 2.048 4.608-3.584 8.704-7.68 8.704-8.704 0-4.096-4.096-1.536-10.752 6.656zM286.208 162.304c-6.656 8.192-6.144 8.704 2.048 2.048 4.608-3.584 8.704-7.68 8.704-8.704 0-4.096-4.096-1.536-10.752 6.656zM180.224 220.16c0 9.728 1.024 13.824 2.56 8.704 1.024-4.608 1.024-12.8 0-17.92-1.536-4.608-2.56-0.512-2.56 9.216zM760.832 259.072c-7.168 18.944-2.56 56.832 9.728 81.92 12.8 25.088 43.008 60.928 35.328 41.472-1.536-4.608-5.12-8.704-7.168-8.704-2.56 0-10.24-10.24-17.408-22.528-15.36-26.624-22.528-72.704-13.824-89.6 3.584-5.632 4.096-10.752 1.024-10.752-2.56 0-6.144 3.584-7.68 8.192zM788.48 256c6.144 4.096 6.656 7.168 1.024 21.504-5.12 13.824-4.608 17.408 1.536 20.992 4.608 2.56 7.68 11.264 7.68 22.016 0 9.728 2.048 16.896 4.608 14.848 2.56-1.536 8.704 2.56 12.8 8.704 6.656 9.216 8.192 9.728 8.192 3.072 0-5.12-4.608-11.264-10.24-14.336-5.632-3.072-10.24-10.752-10.24-17.408 0-6.656-3.072-14.848-7.168-18.432-6.144-4.608-6.144-8.704-2.048-17.92 6.144-13.824 2.56-28.16-7.168-28.16-4.608 0-4.608 1.536 1.024 5.12zM702.464 291.84c0 9.728 1.024 13.824 2.56 8.704 1.024-4.608 1.024-12.8 0-17.92-1.536-4.608-2.56-0.512-2.56 9.216zM821.76 363.52c3.584 5.632 23.04 10.24 23.04 5.12 0-2.048-5.632-5.12-12.8-6.144-6.656-1.536-11.264-1.024-10.24 1.024zM854.528 382.464l-12.288 14.336 14.336-12.288c12.8-11.776 16.384-15.872 12.288-15.872-1.024 0-7.168 6.144-14.336 13.824zM289.28 378.88c-1.536 2.56-0.512 5.12 2.048 5.12 3.072 0 5.632-2.56 5.632-5.12 0-3.072-1.024-5.12-2.048-5.12-1.536 0-4.096 2.048-5.632 5.12zM835.072 387.072c0 5.632 1.536 7.168 3.072 3.072 1.536-3.584 1.024-8.192-0.512-9.728-1.536-2.048-3.072 1.024-2.56 6.656zM250.88 451.072c0 2.56 2.56 3.584 5.12 2.048 3.072-1.536 5.12-4.096 5.12-5.632 0-1.024-2.048-2.048-5.12-2.048-2.56 0-5.12 2.56-5.12 5.632zM512 486.4c0 5.632 1.024 10.24 2.048 10.24s3.072-4.608 4.608-10.24c1.536-5.632 0.512-10.24-2.048-10.24s-4.608 4.608-4.608 10.24zM229.888 489.984c-6.656 8.192-6.144 8.704 2.048 2.048 4.608-3.584 8.704-7.68 8.704-8.704 0-4.096-4.096-1.536-10.752 6.656zM264.704 488.96c-9.216 6.656-8.704 7.168 6.144 15.36 28.16 14.336 15.872 34.304-14.848 24.064-17.408-6.656-19.456-4.608-23.552 25.6-2.56 19.968-1.536 24.064 12.288 38.912 18.944 20.48 35.84 20.992 53.248 2.048 19.968-20.992 26.112-36.352 27.136-67.584 0.512-15.36 0-25.088-1.536-21.504-1.536 4.608-5.632 1.024-11.776-8.704-10.752-17.408-30.72-20.992-47.104-8.192zM583.68 514.048c0 1.024 3.584 3.584 8.192 5.12 4.096 1.536 6.144 1.024 4.608-2.048-3.072-5.12-12.8-7.168-12.8-3.072zM501.76 520.704c-18.944 7.168-20.992 12.8-7.68 25.088 7.168 6.656 12.8 14.336 12.8 17.408 0 9.216-15.36 11.776-33.28 6.656-13.824-4.608-17.92-4.096-19.968 2.048-14.848 37.888 24.576 88.576 69.632 88.576 10.24 0 19.968 2.56 20.992 5.12 1.536 3.072 2.048 2.56 1.536-1.024-1.024-6.144 23.04-27.136 38.4-32.768 6.144-2.048 7.168-8.192 4.096-32.256-3.584-32.768-15.872-60.416-32.256-73.216-10.24-8.704-38.4-11.264-54.272-5.632zM314.368 661.504c-2.048 3.584-2.048 5.12 0.512 3.072 2.048-2.048 7.68-1.024 12.288 2.56 7.168 5.632 7.168 5.12 1.024-3.072-8.192-10.24-9.216-10.752-13.824-2.56zM141.312 750.592c-5.632 15.36-3.072 47.616 4.608 55.296 8.192 8.192 18.432 6.656 35.84-6.144l10.24-7.168-10.24 3.584c-26.112 9.728-31.744 9.216-35.328-5.632-2.56-8.704-1.536-15.36 2.56-17.408 4.096-3.072 4.096-4.608 0-5.632-3.584-1.536-4.608-6.144-2.56-11.264 2.56-7.168 4.608-7.68 10.24-3.072 4.096 3.072 5.632 8.192 3.584 11.264-1.536 3.072-0.512 3.584 3.072 1.536 3.072-2.048 9.216-1.024 13.312 2.048 4.608 4.096 7.68 4.096 7.68 1.024 0-4.608-30.72-26.624-37.376-26.624-1.024 0-4.096 3.584-5.632 8.192zM321.536 758.784c-8.192 2.56-14.336 7.168-14.336 9.728 0 3.072 2.56 3.584 5.12 2.048 3.072-2.048 9.216-0.512 13.312 3.072 6.144 5.12 6.656 4.608 4.096-2.56-2.048-5.12-0.512-8.192 4.608-8.192 6.144 0 7.168 4.608 5.12 19.968-1.536 10.752-0.512 20.992 1.536 22.528 2.56 1.536 4.608-9.216 4.608-23.552 0-28.16-3.072-30.72-24.064-23.04z" fill="#BF924C" p-id="8517"></path><path d="M158.72 788.48c-4.608 3.072-5.12 5.12-1.536 5.12 3.072 0 7.68-2.56 9.216-5.12 4.096-6.144 2.048-6.144-7.68 0zM404.48 821.76c6.656 7.168 13.312 12.8 14.336 12.8 1.536 0-2.56-5.632-9.216-12.8s-13.312-12.8-14.336-12.8c-1.536 0 2.56 5.632 9.216 12.8zM207.36 828.928c-1.536 3.584 0 4.096 4.608 2.56 8.704-3.584 11.264 5.632 3.072 9.728-3.072 1.536-2.56 2.048 1.024 1.536 8.192-1.536 8.704-14.336 0.512-16.896-3.072-1.024-7.168 0.512-9.216 3.072zM442.88 916.48c5.12 5.632 10.24 10.24 11.776 10.24 1.536 0-1.536-4.608-6.656-10.24s-10.24-10.24-11.776-10.24c-1.536 0 1.536 4.608 6.656 10.24zM322.048 925.184c-6.656 8.192-6.144 8.704 2.048 2.048 8.192-6.656 10.752-10.752 6.656-10.752-1.024 0-5.12 4.096-8.704 8.704zM337.92 948.736c0 1.024 7.68 8.192 16.896 16.896l16.384 14.848-14.848-16.896c-14.336-15.36-18.432-18.944-18.432-14.848zM516.096 950.784c3.072 1.024 9.216 1.024 12.8 0 3.072-1.536 0.512-2.56-6.656-2.56-7.168 0-9.728 1.024-6.144 2.56zM562.176 950.784c3.072 1.024 9.216 1.024 12.8 0 3.072-1.536 0.512-2.56-6.656-2.56-7.168 0-9.728 1.024-6.144 2.56zM369.152 996.352c0 5.632 1.536 7.168 3.072 3.072 1.536-3.584 1.024-8.192-0.512-9.728-1.536-2.048-3.072 1.024-2.56 6.656z" fill="#BF924C" p-id="8518"></path><path d="M604.672 89.088c1.024 1.024 12.288 3.072 25.088 4.608 15.36 2.048 19.456 1.536 12.8-1.536-9.728-4.096-42.496-7.168-37.888-3.072zM441.344 94.72c4.096 4.096 60.416 4.096 64 0.512 2.048-1.536-12.288-3.072-31.744-3.072-19.456 0-33.792 1.024-32.256 2.56zM663.04 102.4c13.824 6.144 22.016 6.144 12.8 0-4.096-2.56-11.264-4.608-15.36-4.608-5.12 0-4.096 1.536 2.56 4.608zM385.536 107.52c-17.92 7.168-13.824 10.24 5.12 4.096 8.704-3.072 17.408-6.656 18.432-7.168 4.096-3.584-12.288-1.536-23.552 3.072zM418.816 111.104c3.584 1.536 8.192 1.024 9.728-0.512 2.048-1.536-1.024-3.072-6.656-2.56-5.632 0-7.168 1.536-3.072 3.072zM691.2 112.64c4.096 2.56 10.24 5.12 12.8 5.12 3.072 0 1.536-2.56-2.56-5.12s-9.728-5.12-12.8-5.12c-2.56 0-1.536 2.56 2.56 5.12zM717.824 124.416c5.12 4.096 8.192 8.704 6.656 10.24-1.536 2.048-1.024 2.56 0.512 1.024 2.048-1.024 8.192 0 14.336 3.072 10.752 5.12 10.752 5.12 0.512-3.072-5.632-4.608-14.848-10.752-20.48-13.312-9.216-4.608-9.728-4.608-1.536 2.048zM329.216 133.632c-13.824 8.704-18.944 19.968-8.704 19.968 1.536 0 1.536-2.048 0-4.608s6.656-9.216 18.944-15.36c11.776-6.144 17.92-10.752 13.824-10.752-4.096 0-15.36 5.12-24.064 10.752zM752.64 144.896c0 1.536 10.752 11.264 24.064 22.016 13.312 10.752 22.528 16.896 20.48 13.824-4.608-7.168-44.544-39.424-44.544-35.84zM299.52 153.6c-1.536 2.56-0.512 5.12 2.048 5.12 3.072 0 5.632-2.56 5.632-5.12 0-3.072-1.024-5.12-2.048-5.12-1.536 0-4.096 2.048-5.632 5.12zM819.2 214.528c2.56 5.632 7.68 11.776 10.752 13.824 3.072 1.536 1.536-2.56-3.072-10.24-10.24-15.36-15.36-17.92-7.68-3.584zM180.736 299.52c-9.728 21.504-17.408 39.424-16.384 40.96 1.024 1.024 10.752-16.384 20.992-38.912 10.24-22.016 17.408-40.448 16.384-40.448-1.536 0-10.752 17.408-20.992 38.4zM158.72 355.84c0 4.096 1.024 7.68 2.048 7.68s3.072-3.584 5.12-7.68c1.536-4.096 0.512-7.68-2.048-7.68-3.072 0-5.12 3.584-5.12 7.68zM886.784 373.76c0 7.168 1.024 9.728 2.56 6.144 1.024-3.072 1.024-9.216 0-12.8-1.536-3.072-2.56-0.512-2.56 6.656zM149.504 401.92c0 8.192 1.024 11.264 2.56 6.144 1.024-4.608 1.024-11.776 0-15.36-1.536-3.072-2.56 0.512-2.56 9.216zM891.392 399.872c0 6.656 2.048 16.896 4.608 22.528 3.584 7.168 4.096 4.096 1.536-10.24-3.584-23.552-6.656-30.208-6.144-12.288zM901.632 443.392c0 5.632 1.536 7.168 3.072 3.072 1.536-3.584 1.024-8.192-0.512-9.728-1.536-2.048-3.072 1.024-2.56 6.656zM128 472.576c0 3.072-12.8 23.04-28.16 44.032-25.6 34.304-35.84 51.2-23.552 38.4C102.912 528.384 140.8 465.92 130.56 465.92c-1.536 0-2.56 3.072-2.56 6.656zM922.112 512c0 1.536 3.072 12.8 6.656 25.6 4.096 12.8 7.68 18.432 7.68 12.8 0-8.704-13.312-45.056-14.336-38.4zM56.832 581.632c-12.288 20.48-13.824 26.624-4.096 16.384 6.656-7.168 19.968-34.816 16.896-34.816-1.024 0-6.656 8.192-12.8 18.432zM36.352 625.664c-3.584 10.752-5.12 24.576-4.096 30.72 2.048 10.24 2.048 9.728 3.072-2.56 0-8.192 3.072-18.944 6.144-24.576 3.072-5.632 4.096-12.8 3.072-16.384-1.024-3.584-4.608 2.56-8.192 12.8zM968.192 637.44c0 2.56 4.096 13.312 9.728 23.04 5.632 9.728 9.728 15.36 9.728 12.8 0-3.072-4.096-13.312-9.728-23.04-5.632-9.728-9.728-15.872-9.728-12.8zM26.624 693.76c0 8.192 1.024 11.264 2.56 6.144 1.024-4.608 1.024-11.776 0-15.36-1.536-3.072-2.56 0.512-2.56 9.216zM991.744 704c1.536 13.824 3.584 26.624 4.608 27.648 3.584 4.096 1.024-27.648-3.072-40.448-3.072-8.704-3.584-4.608-1.536 12.8zM31.232 730.112c0 5.632 1.536 7.168 3.072 3.072 1.536-3.584 1.024-8.192-0.512-9.728-1.536-2.048-3.072 1.024-2.56 6.656zM36.352 744.96c0 2.56 3.072 10.752 7.168 17.92 4.096 7.168 7.168 10.24 7.168 7.68 0-3.072-3.072-10.752-7.168-17.92-4.096-7.168-7.168-10.752-7.168-7.68zM246.272 752.128c47.616 9.216 92.16 41.984 101.376 76.288 11.264 39.936-6.656 84.48-40.448 99.328-17.408 7.68-17.92 8.192-7.68 21.504 6.656 8.704 7.68 9.216 7.68 1.536 0-4.608 1.536-8.704 4.096-8.704 5.12 0 28.16 15.872 32.768 22.528 2.56 3.584 4.096 3.584 4.096-1.024 0-3.584-8.192-11.264-18.432-17.408l-18.944-11.264 13.312-11.264c42.496-36.352 45.056-88.064 7.68-132.608-17.408-20.48-56.32-39.424-85.504-41.472l-23.552-1.536 23.552 4.096zM991.232 768.512c-2.048 11.776-2.56 22.528-1.024 23.552 1.024 1.024 3.584-7.168 5.632-18.944 2.048-11.776 2.56-22.016 1.024-23.552-1.024-1.536-3.584 7.168-5.632 18.944zM123.392 807.936c-15.36 21.504-23.04 56.832-15.872 74.752 3.072 8.192 6.656 13.312 8.192 11.776 1.536-1.536 0-7.68-3.072-13.824-3.072-6.144-4.096-17.92-2.56-27.136 5.12-22.528 23.552-54.784 29.696-51.2 3.072 1.536 3.584 0.512 1.536-2.56-5.12-8.704-6.144-8.192-17.92 8.192zM973.824 821.76c-8.704 18.944-7.168 23.04 2.048 6.144 4.608-8.192 7.168-15.872 5.632-16.896-1.024-1.024-4.608 3.584-7.68 10.752zM890.88 822.272c0 4.096-2.048 6.144-5.12 4.608-3.072-1.536-3.584 0.512-2.048 5.12 3.584 9.216 3.584 9.216 11.776-6.656 4.096-7.168 4.096-11.264 0.512-11.264-2.56 0-5.12 3.584-5.12 8.192zM902.144 834.56c0 7.168 1.024 9.728 2.56 6.144 1.024-3.072 1.024-9.216 0-12.8-1.536-3.072-2.56-0.512-2.56 6.656zM794.112 851.456l-12.8 16.384 12.8-11.776c7.168-6.144 14.848-9.728 16.384-7.68 2.048 1.536 3.584-0.512 3.584-5.12 0-12.8-6.144-10.24-19.968 8.192zM907.264 862.72c0 8.192 1.024 11.264 2.56 6.144 1.024-4.608 1.024-11.776 0-15.36-1.536-3.072-2.56 0.512-2.56 9.216zM414.72 862.208c0 1.024 3.584 3.584 8.192 5.12 4.096 1.536 6.144 1.024 4.608-2.048-3.072-5.12-12.8-7.168-12.8-3.072zM868.352 872.96c-4.608 7.168-11.264 11.776-14.336 9.728-3.072-2.048-4.096-1.536-2.048 2.048 1.536 2.56-5.12 10.24-14.848 16.384-10.24 6.144-17.408 12.8-15.872 14.336 3.584 3.584 48.128-33.28 54.272-45.568 7.68-14.336 2.56-11.776-7.168 3.072zM768 870.4c-4.608 3.072-5.12 5.12-1.536 5.12 3.072 0 7.68-2.56 9.216-5.12 4.096-6.144 2.048-6.144-7.68 0zM228.864 873.984c-4.608 4.608-4.608 20.992 0.512 23.552 2.048 1.536 3.584-4.096 3.584-12.288 0-8.192 0-14.848-0.512-14.848 0 0-2.048 1.536-3.584 3.584zM944.64 876.032c-2.048 3.072-2.56 6.144-1.024 7.68 1.024 1.536 3.584-1.024 5.12-5.632 3.584-8.704 0.512-10.24-4.096-2.048zM720.896 879.104c6.144 1.024 16.384 1.024 23.04 0 6.144-1.024 1.024-2.048-11.776-2.048s-17.92 1.024-11.264 2.048zM253.44 897.024l-10.24 10.752 11.776-6.144c6.144-3.072 11.264-8.192 11.264-10.752 0-6.656-1.024-6.144-12.8 6.144zM663.04 909.312c-15.36 13.824-16.384 15.872-4.608 8.192 14.336-9.728 31.744-27.136 27.136-26.624-1.024 0.512-11.264 8.704-22.528 18.432zM905.728 914.944c-6.656 8.192-6.144 8.704 2.048 2.048 8.192-6.656 10.752-10.752 6.656-10.752-1.024 0-5.12 4.096-8.704 8.704zM228.864 922.112c-25.088 5.632-44.544 16.384-57.344 30.72-9.728 10.752-9.216 10.752 7.68-1.536 25.088-17.92 47.104-25.6 67.072-23.552 15.872 1.536 17.408 3.072 18.944 18.944 2.048 20.48-2.56 41.472-9.216 41.472-2.56 0-5.632-10.752-6.656-24.576l-1.536-24.064-1.024 26.112-1.024 26.112-24.064 5.632-24.576 5.632 30.72-2.56c37.376-3.584 44.544-10.752 42.496-45.056-2.048-31.232-12.8-39.424-41.472-33.28zM782.336 920.064c3.584 1.536 8.192 1.024 9.728-0.512 2.048-1.536-1.024-3.072-6.656-2.56-5.632 0-7.168 1.536-3.072 3.072zM140.8 962.56c1.536 2.56 5.632 5.12 8.192 5.12 3.072 0 3.584-2.56 2.048-5.12-1.536-3.072-5.632-5.12-8.192-5.12-3.072 0-3.584 2.048-2.048 5.12zM87.04 1003.008c0 5.632 2.048 11.264 4.608 12.8 2.048 1.536 3.072-3.072 1.536-9.728-2.56-15.36-6.144-16.896-6.144-3.072zM179.2 1003.52c0 2.56 2.56 5.12 5.632 5.12 2.56 0 3.584-2.56 2.048-5.12-1.536-3.072-4.096-5.12-5.632-5.12-1.024 0-2.048 2.048-2.048 5.12z" fill="#FF9F72" p-id="8519"></path><path d="M49.152 51.712C41.984 57.344 35.84 64.512 35.84 67.584c0 3.072 4.096 0 9.216-6.144 5.12-6.656 16.896-11.776 30.208-13.824 17.92-2.56 23.04-1.024 34.304 10.24 7.168 7.168 13.312 11.264 13.312 8.704 0-9.216-27.648-25.6-43.52-25.6-9.216 0-22.528 4.608-30.208 10.752zM157.184 49.664c9.216 1.024 25.6 1.024 35.84 0 10.752-1.024 3.584-2.048-16.384-2.048-19.456 0-28.16 1.024-19.456 2.048zM235.52 50.176c0 2.048 9.216 3.072 20.48 2.048 11.264-1.024 20.48-3.072 20.48-4.096 0-1.024-9.216-2.048-20.48-2.048s-20.48 1.536-20.48 4.096zM296.96 48.128c0 1.024 9.216 3.072 20.48 4.096 11.264 1.024 20.48 0 20.48-2.048 0-2.56-9.216-4.096-20.48-4.096s-20.48 1.024-20.48 2.048zM487.936 49.664c33.792 2.048 34.304 2.048 34.304 16.896 0 12.288-2.56 14.848-13.824 16.896-13.312 2.048-13.312 2.048 2.56 3.072 15.872 0.512 16.384 0 16.384-19.968V46.08l-36.864 1.024-37.376 1.024 34.816 1.536zM543.232 54.784c0 5.632 1.536 6.656 3.072 2.56 1.536-3.584 12.8-6.144 30.208-6.144 26.112 0 27.648 0.512 27.648 12.8 0 8.704-3.584 14.848-11.264 17.92-11.776 4.608-11.776 4.608-1.024 4.608 11.776 0.512 17.408-8.192 17.408-28.16 0-11.776-1.536-12.288-33.28-12.288-28.672 0-33.28 1.536-32.768 8.704zM635.904 62.464c1.536 14.336 3.584 16.896 15.872 17.408 13.824 0.512 13.824 0.512 0.512-1.536-11.264-2.048-12.8-4.608-11.264-17.408 1.536-8.192 0.512-14.848-2.048-14.848s-4.096 7.68-3.072 16.384zM670.208 49.664c16.896 1.536 20.992 4.096 22.528 14.848 2.048 10.752 2.048 10.752 1.536-1.536-0.512-13.312-2.048-14.336-22.528-14.848l-21.504-0.512 19.968 2.048zM712.192 57.344c0.512 8.704 1.536 9.216 3.072 3.072 1.536-6.656 9.216-9.216 28.672-10.752l26.624-1.536-29.184-1.024c-27.648-1.024-29.696-0.512-29.184 10.24zM786.944 49.664c-2.048 1.536-3.584 19.968-3.584 40.448v36.864l22.016 18.944c16.384 14.336 22.016 16.896 23.04 10.752 1.024-4.608 4.096-8.192 6.656-8.192 3.072 0 3.584-2.56 1.536-6.144-2.56-4.096-5.12-3.072-9.728 2.56-5.12 7.168-7.68 6.656-22.016-4.608-15.872-12.8-16.384-14.336-16.384-51.2V51.2h35.328l2.048 41.984 1.536 42.496 1.024-45.056 1.024-44.544h-19.456c-10.752 0-21.504 1.536-23.04 3.584zM844.8 114.176c0 59.392 1.024 69.632 9.216 75.776 7.168 5.632 7.68 5.632 2.56-0.512-4.608-5.12-6.656-27.648-6.656-72.704V51.2h35.84l0.512 31.744c0.512 17.92 0.512 33.792 0 35.84-1.024 6.656 6.656 4.096 18.944-5.632 6.144-5.632 11.264-13.824 11.264-19.456 0-7.168-1.536-6.656-6.656 3.072-11.776 23.552-18.432 18.432-19.968-15.872l-1.536-32.256-21.504-1.536-22.016-1.536v68.608zM901.632 54.784c0 5.632 1.536 6.656 3.072 2.56 1.024-3.072 8.704-6.144 16.896-6.144 8.192 0 15.872 3.072 16.896 6.144 1.536 4.096 3.072 3.072 3.072-2.56 0.512-6.656-3.584-8.704-19.968-8.704s-20.48 2.048-19.968 8.704zM959.488 53.248c-1.536 4.096-2.048 11.776-0.512 16.896 1.536 6.144 2.56 4.608 3.072-4.608 0.512-11.264 3.072-13.824 17.408-15.872l16.384-2.048-16.896-0.512c-10.24-0.512-17.92 1.536-19.456 6.144zM215.04 53.248c0 1.024 4.096 5.12 9.216 8.704 7.68 6.656 8.192 6.144 1.536-2.048S215.04 49.152 215.04 53.248zM993.792 64.512c0 5.632 1.536 7.168 3.072 3.072 1.536-3.584 1.024-8.192-0.512-9.728-1.536-2.048-3.072 1.024-2.56 6.656zM241.152 69.632c0 5.632 1.536 7.168 3.072 3.072 1.536-3.584 1.024-8.192-0.512-9.728-1.536-2.048-3.072 1.024-2.56 6.656zM277.504 74.24c0 8.192 1.024 11.264 2.56 6.144 1.024-4.608 1.024-11.776 0-15.36-1.536-3.072-2.56 0.512-2.56 9.216zM292.864 74.24c0 8.192 1.024 11.264 2.56 6.144 1.024-4.608 1.024-11.776 0-15.36-1.536-3.072-2.56 0.512-2.56 9.216zM328.192 69.632c0 5.632 1.536 7.168 3.072 3.072 1.536-3.584 1.024-8.192-0.512-9.728-1.536-2.048-3.072 1.024-2.56 6.656z" fill="#FFDF79" p-id="8520"></path><path d="M906.752 74.752c0 5.632 1.536 7.168 3.072 3.072 1.536-3.584 1.024-8.192-0.512-9.728-1.536-2.048-3.072 1.024-2.56 6.656zM74.24 76.8c-2.048 3.072-0.512 4.608 3.584 4.096 4.096-1.024 7.168 4.096 8.192 12.288 1.536 12.8 3.584 14.336 22.016 14.336 19.456 0 19.968-0.512 19.456-16.896-1.024-15.36-1.024-15.36-3.072-2.56-2.048 11.776-4.608 14.336-16.384 14.336-12.288 0-15.36-2.56-17.408-15.36-3.584-15.36-10.24-19.968-16.384-10.24zM231.936 99.84c0 16.896 1.024 23.04 2.048 13.824 1.024-9.216 1.024-23.04 0-30.72s-2.048 0-2.048 16.896zM943.104 87.04c0 9.728 1.024 13.824 2.56 8.704 1.024-4.608 1.024-12.8 0-17.92-1.536-4.608-2.56-0.512-2.56 9.216zM32.256 97.28c0 12.8 1.024 17.92 2.048 11.264 1.024-6.144 1.024-16.384 0-23.04-1.024-6.144-2.048-1.024-2.048 11.776zM184.32 78.848c0 1.024 3.584 3.584 8.192 5.12 4.096 1.536 6.144 1.024 4.608-2.048-3.072-5.12-12.8-7.168-12.8-3.072zM988.672 84.992c0 5.632 1.536 7.168 3.072 3.072 1.536-3.584 1.024-8.192-0.512-9.728-1.536-2.048-3.072 1.024-2.56 6.656zM246.272 90.112c0 5.632 1.536 7.168 3.072 3.072 1.536-3.584 1.024-8.192-0.512-9.728-1.536-2.048-3.072 1.024-2.56 6.656zM323.072 90.112c0 5.632 1.536 7.168 3.072 3.072 1.536-3.584 1.024-8.192-0.512-9.728-1.536-2.048-3.072 1.024-2.56 6.656zM541.696 88.064c2.56 2.56 8.192 4.096 11.776 3.072 4.096-1.536 1.536-3.584-5.12-5.632-8.704-2.048-10.752-1.536-6.656 2.56zM679.936 85.504c3.072 1.024 9.216 1.024 12.8 0 3.072-1.536 0.512-2.56-6.656-2.56-7.168 0-9.728 1.024-6.144 2.56zM706.56 86.528c0 5.12 9.728 12.8 12.8 10.24 0.512-1.024-1.536-5.12-5.632-8.704s-7.168-4.096-7.168-1.536zM952.832 89.6c-0.512 5.632-2.048 15.872-3.072 23.04l-3.072 12.8L952.32 112.64c3.072-6.656 4.608-16.896 3.584-23.04-2.048-9.728-2.048-9.728-3.072 0zM350.72 97.28c-9.216 10.24-9.216 10.752 0 19.456 9.216 8.192 9.216 8.192 3.072-0.512-5.632-7.168-5.632-10.24-0.512-16.384 5.632-7.168 7.68-7.168 17.408 1.024l10.752 9.216-9.728-11.776c-11.776-13.824-9.728-13.312-20.992-1.024zM414.208 95.744c-6.144 8.192-6.144 8.704 1.024 3.072 4.608-3.584 10.24-4.608 12.288-2.56 2.56 2.048 2.56 0.512 0.512-3.072-4.608-8.192-5.632-7.68-13.824 2.56zM475.136 90.624c3.072 1.024 9.216 1.024 12.8 0 3.072-1.536 0.512-2.56-6.656-2.56-7.168 0-9.728 1.024-6.144 2.56zM284.16 104.96c-1.536 4.096-3.584 11.264-5.12 15.36-1.024 4.096 0.512 7.68 4.096 7.68 3.584 0 7.168-7.168 7.68-15.36 1.024-16.384-2.56-20.48-6.656-7.68zM732.16 102.4c4.096 2.56 10.24 5.12 12.8 5.12 3.072 0 1.536-2.56-2.56-5.12s-9.728-5.12-12.8-5.12c-2.56 0-1.536 2.56 2.56 5.12zM983.552 105.472c0 5.632 1.536 7.168 3.072 3.072 1.536-3.584 1.024-8.192-0.512-9.728-1.536-2.048-3.072 1.024-2.56 6.656zM70.144 109.056c-1.536 4.096 0.512 7.168 4.096 7.168 3.584 0 5.632-3.072 4.096-7.168-1.536-3.584-3.072-6.656-4.096-6.656-1.024 0-2.56 3.072-4.096 6.656zM252.928 112.64c0.512 4.096 5.12 8.192 10.752 8.704 7.68 0.512 7.68 0 1.536-1.536-4.608-1.536-9.728-5.632-10.752-8.704-1.024-3.584-1.536-2.56-1.536 1.536zM317.952 110.592c0 5.632 1.536 7.168 3.072 3.072 1.536-3.584 1.024-8.192-0.512-9.728-1.536-2.048-3.072 1.024-2.56 6.656zM916.992 120.832c0 5.632 1.536 7.168 3.072 3.072 1.536-3.584 1.024-8.192-0.512-9.728-1.536-2.048-3.072 1.024-2.56 6.656zM94.72 128c5.12 5.632 10.24 10.24 11.776 10.24 1.536 0-1.536-4.608-6.656-10.24s-10.24-10.24-11.776-10.24c-1.536 0 1.536 4.608 6.656 10.24zM978.432 125.952c0 5.632 1.536 7.168 3.072 3.072 1.536-3.584 1.024-8.192-0.512-9.728-1.536-2.048-3.072 1.024-2.56 6.656zM35.84 126.464c0 2.56 7.68 12.288 16.896 20.992 11.264 10.752 17.408 14.336 17.408 9.216 0-4.096-2.048-6.656-4.096-5.632-2.048 1.536-9.728-4.608-16.896-13.312C41.984 129.024 35.84 123.904 35.84 126.464zM189.44 128c-6.656 4.096-6.144 5.12 1.536 5.12 4.608 0 8.704-2.56 8.704-5.12 0-6.144-0.512-6.144-10.24 0zM886.272 164.864c0 22.016 1.024 39.936 3.584 39.936 2.048 0 3.072-12.288 2.048-26.624-2.56-48.64-4.608-53.248-5.632-13.312zM922.112 141.312c0 5.632 1.536 7.168 3.072 3.072 1.536-3.584 1.024-8.192-0.512-9.728-1.536-2.048-3.072 1.024-2.56 6.656zM973.312 146.432c0 5.632 1.536 7.168 3.072 3.072 1.536-3.584 1.024-8.192-0.512-9.728-1.536-2.048-3.072 1.024-2.56 6.656zM927.232 161.792c0 5.632 1.536 7.168 3.072 3.072 1.536-3.584 1.024-8.192-0.512-9.728-1.536-2.048-3.072 1.024-2.56 6.656zM123.392 166.912c0 5.632 1.536 7.168 3.072 3.072 1.536-3.584 1.024-8.192-0.512-9.728-1.536-2.048-3.072 1.024-2.56 6.656zM968.704 198.144l-1.024 41.984-18.944 2.048-19.456 2.048 19.456 0.512c23.552 1.024 25.088-2.048 22.528-50.688l-1.536-37.888-1.024 41.984zM30.72 179.712c0 2.56 2.56 3.584 5.12 2.048 3.072-1.536 5.12-4.096 5.12-5.632 0-1.024-2.048-2.048-5.12-2.048-2.56 0-5.12 2.56-5.12 5.632zM88.064 193.024c-1.024 18.944-10.752 28.16-11.776 10.752-0.512-9.216-1.024-9.728-3.072-2.048-1.536 5.12 0 11.776 3.072 14.848 9.216 9.216 16.896-3.072 14.336-22.528l-2.048-17.408-0.512 16.384zM860.16 201.728c0 1.024 4.096 5.12 9.216 8.704 7.68 6.656 8.192 6.144 1.536-2.048s-10.752-10.752-10.752-6.656zM909.312 212.48c2.048 4.096 4.096 7.68 5.12 7.68 1.024 0 2.048-3.584 2.048-7.68s-2.048-7.68-5.12-7.68c-2.56 0-3.584 3.584-2.048 7.68zM35.84 217.088c0 4.096 2.048 8.704 4.608 10.24 2.56 2.048 3.584-1.536 2.048-7.168-3.072-11.776-6.656-13.312-6.656-3.072zM120.32 224.768c-1.536 5.632-7.68 11.776-13.312 13.312-5.632 2.048-9.728 4.608-8.192 5.632 1.024 1.536 6.144 1.024 10.752-1.024 9.216-3.584 20.992-21.504 16.896-26.112-1.536-1.024-4.096 2.56-6.144 8.192zM878.592 226.816c1.536 5.12 4.608 7.68 6.144 6.144 1.536-1.536 0-5.632-3.584-9.216-5.12-4.608-5.632-4.096-2.56 3.072zM911.36 229.888c0 2.56-4.096 6.144-8.704 7.168-7.168 2.048-6.144 2.56 2.56 3.072 6.656 0.512 11.264-2.56 11.264-7.168 0-4.096-1.024-7.68-2.56-7.68s-2.56 2.048-2.56 4.608zM54.784 241.152c3.584 3.584 7.68 5.12 9.216 3.584 1.536-1.536-1.024-4.608-6.144-6.144-7.168-3.072-7.68-2.56-3.072 2.56zM143.36 241.664c0 2.56 9.216 4.096 20.48 4.096s20.48-1.536 20.48-4.096c0-2.048-9.216-3.584-20.48-3.584s-20.48 1.536-20.48 3.584zM75.776 249.344c3.072 1.024 9.216 1.024 12.8 0 3.072-1.536 0.512-2.56-6.656-2.56-7.168 0-9.728 1.024-6.144 2.56zM988.16 428.544c-18.432 7.168-34.304 13.824-35.328 14.848-4.096 3.584 46.592 158.208 58.368 177.664l12.8 21.504v-114.176c0-62.464-0.512-113.664-1.024-113.152-1.024 0-16.384 6.144-34.816 13.312zM91.648 445.44c-12.288 10.752-19.968 19.968-17.408 20.48 3.072 0 14.848-9.216 25.6-20.48 25.6-26.112 20.48-26.624-8.192 0zM20.48 436.736c0 1.024 7.68 8.192 16.896 16.896l16.384 14.848-14.848-16.896c-14.336-15.36-18.432-18.944-18.432-14.848zM40.96 494.08c-4.096 4.608-4.096 7.68-1.024 7.68 6.144 0 13.312-9.728 9.728-13.312-1.024-1.024-5.12 1.024-8.704 5.632zM71.68 487.936c0 1.024 7.68 8.192 16.896 16.896l16.384 14.848-14.848-16.896c-14.336-15.36-18.432-18.944-18.432-14.848zM7.68 522.24c-13.312 14.336-7.68 15.872 6.144 1.536 6.144-6.656 9.728-11.776 7.168-11.776-2.048 0-8.192 4.608-13.312 10.24zM299.008 594.944l-9.728 11.776 11.776-9.728c10.752-9.216 13.824-13.312 9.728-13.312-1.024 0-6.144 5.12-11.776 11.264zM516.096 664.064c3.072 1.024 9.216 1.024 12.8 0 3.072-1.536 0.512-2.56-6.656-2.56-7.168 0-9.728 1.024-6.144 2.56zM24.064 789.504L0 800.256V1018.88h90.112l-2.048-20.992c-1.536-15.872 0.512-24.576 9.216-36.352 6.656-8.704 9.216-14.336 6.144-12.288-8.192 5.12-28.16-16.896-25.088-27.648 1.536-6.144-1.536-11.264-10.24-14.848-10.24-4.608-12.288-9.216-11.264-22.528 1.024-8.704-1.536-22.528-5.12-30.208-6.144-11.776-5.632-16.384 3.072-33.792 9.216-18.944 9.216-21.504 2.048-31.232l-8.192-10.24-24.576 10.752zM1008.64 843.264c-15.36 29.696-31.744 49.152-52.224 64l-15.872 10.752 2.56-15.36 2.048-15.872-22.016 17.92-22.016 17.92v-15.872c0-8.704-1.024-15.872-2.048-15.872-1.536 0-10.752 4.608-20.48 10.752-19.456 11.264-80.384 22.016-98.816 17.408-11.264-2.56-16.384-14.848-7.68-18.944 2.048-1.024 8.704-7.68 15.36-14.848l11.264-13.312-28.672 4.096c-19.456 2.56-33.28 8.192-42.496 15.872-7.168 7.168-19.456 16.384-26.624 20.992-18.432 11.264-23.552 43.008-9.216 55.808 7.168 6.144 9.728 14.336 8.704 26.624-0.512 9.728 0.512 19.456 2.048 20.992 3.072 3.072 316.928 3.584 320 0.512 1.024-1.024 1.024-45.568 0.512-99.84l-1.536-97.792-12.8 24.064z" fill="#FFDF79" p-id="8521"></path><path d="M550.912 92.16c-8.704 2.56-40.96 5.12-71.68 6.144-31.232 0.512-64 3.584-72.704 7.168-8.704 3.584-22.528 7.68-30.208 9.216-8.192 1.536-15.872 4.608-17.408 6.656-1.536 2.048-11.776 8.704-22.016 13.824-10.752 5.12-17.92 11.776-16.384 13.824 1.536 2.56-1.024 3.072-5.12 1.536-4.608-1.536-8.192-0.512-8.192 2.56s-3.072 5.632-6.656 5.632c-7.168 0-60.928 51.2-79.36 75.776-12.288 16.896-50.688 94.72-54.784 111.104-26.112 111.104-40.96 153.088-60.928 173.056-12.8 12.288-44.032 61.44-44.032 68.096 0 4.096-2.048 7.168-4.608 7.168-9.728 0-23.552 58.88-23.552 99.84 0.512 35.84 2.56 45.568 17.408 75.776 10.752 22.528 18.944 33.28 22.016 30.208 3.072-3.072 0-14.848-9.216-32.256-10.752-21.504-14.336-36.864-16.384-69.12-3.072-59.392 5.12-77.824 96.256-217.6 14.336-21.504 26.624-46.592 28.16-56.32l3.072-17.408-10.752 19.456c-16.384 29.184-18.432 18.944-3.072-13.824 7.168-15.36 13.312-31.232 13.312-35.328 0-17.92 28.672-86.016 49.152-117.248 26.112-39.424 73.728-84.992 110.08-105.984 13.824-7.68 23.552-15.872 20.992-18.432-2.048-2.048-1.024-2.56 2.048-1.024 3.584 2.048 20.48-2.048 38.4-8.704 17.408-6.656 28.672-13.312 24.576-14.336-4.096-1.536 2.048-3.072 13.312-3.072s52.736-1.024 92.16-2.56c86.528-3.584 125.952 3.072 181.76 30.72 20.992 10.752 39.936 18.432 41.984 17.92 2.56-0.512 3.584 0.512 3.072 3.072-2.56 6.656 44.544 45.568 51.712 43.008 4.608-1.536 5.632 0 3.584 3.584-2.048 3.584-0.512 11.776 4.096 18.432 6.144 9.216 6.144 12.8 1.536 14.848-3.072 1.024 0 2.048 8.192 1.536 7.68-0.512 13.824-1.024 13.824-2.048 0-0.512-7.168-11.264-15.36-24.064-16.384-24.064-53.76-57.856-90.624-81.408-46.08-29.696-140.8-50.176-177.664-39.424z" fill="#FF9292" p-id="8522"></path><path d="M540.672 132.608c34.304 12.8 56.32 24.064 83.968 43.52 35.84 25.6 40.448 26.112 14.848 2.048-27.648-26.112-71.68-48.64-102.4-52.736l-22.528-2.56 26.112 9.728zM588.8 257.536c26.624 44.544 40.96 93.184 44.032 152.064l2.048 48.64-15.36-30.72c-8.192-16.896-15.36-34.816-15.36-39.936 0-4.608-2.048-8.704-4.608-8.704-7.68 0-11.776 51.712-6.656 75.264 3.072 12.288 3.072 22.016 1.024 22.016-8.704 0-57.344-48.64-69.12-69.12-7.168-11.776-17.408-38.4-22.528-59.392l-9.728-37.888-8.192 19.456c-4.608 10.752-10.24 35.84-12.8 56.32l-4.096 36.864-10.752-23.04C450.56 386.56 445.44 371.2 445.44 364.544c0-14.848-7.168-14.336-14.336 1.024-19.968 44.032-5.632 145.92 20.48 146.432 2.048 0 0.512-9.728-3.584-22.016-3.584-11.776-8.192-30.208-9.728-40.96l-2.56-19.456 15.36 13.312c8.704 7.168 17.408 12.8 19.968 12.8s7.68 1.536 11.776 3.072c6.656 2.56 7.68-4.096 5.632-47.616-1.536-39.936-1.024-47.616 3.584-37.376 3.072 7.168 9.728 22.528 15.36 34.304 13.824 31.744 43.52 61.952 77.824 79.36l30.72 15.36-3.072-16.384-3.584-15.872 12.8 14.848c10.24 12.288 11.776 18.432 9.216 34.816-1.536 10.752-6.144 26.112-9.728 33.28-3.584 7.68-5.632 14.848-4.096 15.872 4.096 4.608-18.944 57.344-26.624 61.952-4.096 2.56-6.144 6.144-4.608 8.704 4.608 7.68-13.312 30.72-34.816 44.544-30.208 18.944-64 52.224-78.336 76.288l-12.288 20.992-45.056-1.536c-24.576-1.024-40.96-0.512-36.864 1.536 4.096 1.536 11.264 6.656 15.872 11.264 5.12 4.608 19.968 13.824 33.792 20.992 13.312 7.168 25.6 13.312 26.624 14.336 6.144 3.584-15.36 17.92-27.136 17.92-15.872-0.512-17.92 11.776-2.56 16.384 13.312 4.096 45.056-11.776 46.08-23.04 0.512-4.096 1.536-16.384 2.56-27.136 2.56-32.768 25.088-66.048 62.976-95.232 18.944-14.336 37.376-26.112 40.448-26.112 2.56 0 6.144-1.536 7.168-4.096 1.024-2.048 14.336-13.312 30.208-24.576 38.4-29.184 59.392-50.688 71.168-74.24 15.36-29.696 12.288-35.328-4.608-9.216-12.288 19.968-45.056 51.2-65.536 62.976-3.584 2.048-1.536-9.728 6.144-29.184 47.104-125.952 33.28-287.744-31.744-369.664-22.528-28.16-23.552-20.992-1.536 14.336zM777.728 237.056c2.56 2.56 9.728 3.584 16.384 2.56 10.24-1.536 9.728-2.56-4.608-4.608-10.24-1.536-14.848-1.024-11.776 2.048z" fill="#FF9292" p-id="8523"></path><path d="M317.44 259.584c-6.144 10.752-13.824 31.744-16.896 47.616-3.072 15.36-11.776 36.864-19.456 47.104l-13.312 18.944-3.584-23.552c-1.536-12.8-3.072-35.328-3.072-49.664-0.512-19.968-1.536-24.064-5.632-17.408-8.192 14.336-23.552 80.384-18.432 79.36 2.56-0.512 5.632 4.608 6.656 11.776 7.68 53.248 9.728 54.272 26.624 19.456 6.144-12.288 15.872-27.648 21.504-34.816l10.752-12.8-2.048 16.384c-1.024 9.216-0.512 16.896 1.536 16.896s6.144 9.728 9.728 21.504c7.68 25.6 48.128 67.584 84.48 87.552 33.792 18.944 41.472 14.848 10.24-5.12-39.936-25.6-67.072-56.32-79.36-88.064-9.216-24.064-10.24-36.352-8.192-75.264 1.024-27.648 5.12-53.248 10.24-62.976 11.264-22.528 2.048-19.968-11.776 3.072zM673.28 323.584c15.872 28.672 34.816 95.744 46.08 162.816 7.168 41.984 8.192 71.168 6.144 135.68-1.536 45.056-4.608 87.04-6.144 93.184-2.56 8.192-1.536 11.776 3.584 11.776 6.656 0 18.432-47.104 19.968-77.824 1.024-26.624 8.704 14.336 9.216 50.176 1.536 125.952-93.696 230.4-209.408 229.376-49.664 0-76.288-13.312-109.056-53.248-11.776-14.336-15.872-10.752-8.704 8.192 17.408 45.056 84.992 73.216 151.552 62.464 39.936-6.144 59.392-15.36 96.768-45.056 29.184-23.04 34.816-25.6 58.368-25.6 29.696 0 51.2-9.216 66.048-28.16 5.632-7.168 11.776-12.8 13.824-12.8 8.704 0-4.608 30.208-23.552 52.224-21.504 25.6-20.48 30.72 7.68 30.72 19.456 0 60.928-25.088 55.808-33.28-1.536-2.56-0.512-3.584 2.56-1.536 7.68 4.608 28.16-26.112 28.672-43.008 0.512-7.68 2.048-13.312 4.608-11.776 2.048 1.024 3.584-1.536 3.584-5.632 0-13.312 9.728-9.216 13.824 5.632 4.608 19.456 4.608 46.08-0.512 70.144l-4.608 19.456 14.848-9.216c24.064-15.36 32.256-27.136 56.832-78.848 32.256-69.632 30.72-118.784-6.656-197.12-21.504-45.568-69.632-202.24-76.288-249.856-3.584-23.552-8.704-29.696-15.872-17.92-2.048 3.072-1.536 4.096 1.536 2.56 3.072-2.048 7.68 11.264 11.264 31.744 3.584 19.456 12.8 60.416 20.48 92.16 8.192 31.232 14.336 56.832 13.824 56.832-0.512 0-12.288-17.408-26.112-38.4-13.824-20.992-25.6-37.376-27.136-36.352-1.024 1.536 15.872 34.304 38.4 73.216 71.68 126.976 82.944 163.328 71.168 231.424-4.096 22.016-11.264 47.616-16.384 57.344l-9.728 17.408-1.024-23.04c-2.048-33.792-11.776-76.8-22.016-97.28-11.264-22.016-30.72-42.496-83.968-89.6-40.448-35.84-51.712-52.736-66.56-102.4l-8.192-25.6 2.56 27.648c3.072 35.328 25.088 82.432 55.808 117.76 13.312 14.848 27.648 34.304 31.744 41.984 26.112 51.2 13.824 132.096-26.624 168.448-12.288 11.264-13.312 11.264-10.24 2.56 12.288-32.256 3.584-89.6-15.36-105.472-7.68-6.144-8.192-5.632-4.608 5.632 2.56 7.168 5.632 20.992 7.68 30.72 2.56 15.872 1.024 19.456-14.848 31.744-9.216 8.192-18.944 14.336-20.992 14.336-2.048 0 1.024-13.312 6.656-29.696 8.192-24.576 9.216-37.376 6.656-79.36-3.584-58.88-8.192-81.408-28.16-146.944-8.192-26.624-17.92-68.608-20.992-93.184-9.728-78.848-49.664-190.976-70.144-197.632-3.584-1.024-1.024 8.192 6.144 20.48z" fill="#FF9292" p-id="8524"></path><path d="M225.28 377.856c-53.248 63.488-103.936 164.352-120.32 239.616-13.312 58.368-3.584 119.808 18.432 119.808 8.704 0 8.704-1.536 2.048-20.992-10.24-28.16-9.728-68.608 1.024-113.664l8.704-36.864 3.584 44.032c3.584 49.664 26.624 112.128 35.328 96.256 2.56-4.608 11.776-11.264 20.48-14.848 12.288-5.12 14.336-7.68 9.728-13.312-3.072-4.096-7.168-6.144-9.216-5.12-7.68 5.12-8.192-69.632 0-84.48 3.072-6.656 6.144-35.84 7.168-68.096 1.024-58.368 12.288-117.76 27.136-140.288 8.704-13.312 6.144-14.848-4.096-2.048zM752.64 417.28c6.656 7.168 13.312 12.8 14.336 12.8 1.536 0-2.56-5.632-9.216-12.8s-13.312-12.8-14.336-12.8c-1.536 0 2.56 5.632 9.216 12.8zM802.816 443.904c3.584 1.536 8.192 1.024 9.728-0.512 2.048-1.536-1.024-3.072-6.656-2.56-5.632 0-7.168 1.536-3.072 3.072zM196.096 752.64c-13.312 5.632-13.824 7.168-5.632 19.968 8.192 13.312 2.048 24.576-18.432 34.816-16.896 7.68-18.944 7.68-27.648 0-8.704-8.192-10.24-7.68-19.968 10.752-17.92 31.744-19.456 52.224-5.632 72.704 6.656 9.728 16.896 18.432 23.04 19.456 5.632 1.024 16.896 8.192 24.064 16.896 12.8 14.336 14.336 14.848 28.16 7.168 8.192-4.096 24.064-9.728 35.328-12.288 30.72-6.656 41.984 3.072 41.984 34.816 0 33.28-6.656 40.448-43.52 43.52l-30.72 2.56 24.576-5.632 24.064-5.632 1.024-26.112 1.024-26.112 1.536 24.064c1.024 13.824 4.096 24.576 6.656 24.576 6.656 0 11.264-20.992 9.216-41.472-1.536-15.872-3.072-17.408-18.944-18.944-18.944-2.048-41.472 5.632-64.512 21.504-8.192 5.632-19.456 9.728-24.576 9.216-6.656-1.536-8.704 0-6.144 4.096s1.536 5.632-3.072 4.096c-4.096-1.536-6.656-5.632-5.632-8.704 0.512-3.072-1.536-5.632-4.608-5.632-3.072 0-4.096 3.584-2.56 8.192 1.536 4.608-1.024 11.776-6.144 16.384-5.12 5.12-6.656 6.656-3.072 4.608 8.192-5.12 40.448-14.336 35.84-10.24-1.536 1.536-0.512 6.144 2.56 9.728 4.096 5.12 2.048 10.24-9.216 19.968l-14.336 12.8 15.872-8.704c10.24-5.12 19.456-7.168 25.6-4.608 6.656 3.072 7.68 5.12 3.072 6.656-5.12 2.048-4.096 4.608 2.56 9.728 11.776 8.704 83.968 9.728 92.672 1.024 3.584-3.584 6.144-11.264 6.144-17.408 0-6.656 2.56-13.312 5.12-14.848 3.072-2.048 4.096-5.12 2.56-7.68-5.12-7.68 12.8-16.384 30.72-14.336 22.016 2.56 22.528-1.024 3.072-12.8-18.432-10.752-20.992-10.752-20.992 0 0 7.68-1.024 7.168-7.68-1.536-10.24-13.312-9.728-13.824 7.68-21.504 48.64-21.504 58.88-91.648 19.456-133.632-28.672-30.72-100.352-53.248-130.56-41.472z m24.576 61.44c11.264 6.144 13.312 30.208 3.584 39.936-9.728 9.728-28.16 7.168-36.864-5.12-10.24-14.848-10.24-17.408 2.048-29.696 11.776-11.776 16.896-12.288 31.232-5.12z m98.816 19.968c18.432 19.968-3.072 43.52-25.6 28.672-14.336-9.216-15.872-25.6-3.072-32.768 12.8-7.68 18.944-6.656 28.672 4.096zM255.488 865.28c13.312 6.656 12.288 29.696-1.536 36.352-10.752 5.12-10.752 5.12-0.512-3.072 10.24-8.704 9.728-8.704-2.56-5.12-21.504 6.144-23.04 5.632-23.04-7.68 0-7.68 3.072-12.8 7.68-12.8 4.096-0.512 7.168-3.072 6.656-6.656-2.048-7.68 1.536-7.68 13.312-1.024z m25.088 1.024c-1.024 3.584 1.536 6.144 5.632 5.12 4.608-1.024 5.632 1.536 3.584 6.656-1.536 4.608-3.072 10.24-3.072 12.8 0 2.048-3.072 5.12-6.656 6.656-4.096 1.536-7.168-2.56-7.68-10.752-0.512-7.168-3.584-15.872-6.656-19.456-4.608-5.632-3.584-7.168 5.12-7.168 5.632 0 10.24 3.072 9.728 6.144z" fill="#FF9292" p-id="8525"></path><path d="M231.424 885.76c0 7.168 1.024 9.728 2.56 6.144 1.024-3.072 1.024-9.216 0-12.8-1.536-3.072-2.56-0.512-2.56 6.656zM707.584 774.144c-5.632 12.288-22.528 35.328-37.888 51.2-34.816 36.352-75.264 56.32-120.32 59.392-17.92 1.024-31.232 4.096-29.696 6.144 5.632 9.216 41.984 10.24 71.68 2.56 62.464-16.384 102.912-51.2 119.808-103.424 12.8-38.912 10.752-48.128-3.584-15.872zM111.616 955.904c3.072 1.024 9.216 1.024 12.8 0 3.072-1.536 0.512-2.56-6.656-2.56-7.168 0-9.728 1.024-6.144 2.56zM348.16 964.608c0 2.048 3.584 7.168 7.68 11.264 4.096 4.608 7.68 5.632 7.68 3.072 0-2.56-3.584-7.68-7.68-11.264-4.096-3.584-7.68-4.608-7.68-3.072zM307.2 993.28c-4.608 3.072-5.12 5.12-1.536 5.12 3.072 0 7.68-2.56 9.216-5.12 4.096-6.144 2.048-6.144-7.68 0zM363.52 1002.496c0 9.216 2.56 16.384 5.12 16.384 3.072 0 4.096-5.632 2.048-14.336-5.12-19.968-7.168-20.48-7.168-2.048z" fill="#FF9292" p-id="8526"></path><path d="M179.712 704.512c-8.704 7.168-17.92 11.776-20.992 9.728-7.168-4.096-25.6 6.656-25.6 15.36 0 3.584-4.096 8.192-8.704 10.24-15.36 5.12-41.984 32.256-45.568 46.08-1.536 7.168-7.68 15.36-12.8 17.92-14.336 8.192-21.504 40.448-11.776 54.784 4.096 6.656 6.144 14.336 4.096 17.408-5.632 9.216 2.56 28.672 12.8 31.744 6.656 1.536 9.216 5.632 7.68 11.776-4.096 15.36 8.704 26.624 33.792 29.184 12.8 1.536 28.672 4.096 35.84 5.632 7.68 1.536 16.896 0 22.016-4.096 9.216-7.168 9.216-7.68 0-18.432-5.12-6.144-20.48-16.896-34.816-23.552-30.208-15.36-33.28-19.456-33.28-43.008 0-18.432 19.968-67.584 30.208-73.728 3.072-2.048 5.632-11.264 5.632-19.968 0-26.112 6.656-32.768 22.528-22.016 11.264 7.168 16.896 7.68 32.768 3.072 30.208-8.192 73.216-6.144 93.184 4.608 15.872 8.192 19.456 8.704 34.816 2.048 22.016-9.216 28.16-4.608 24.064 18.432-2.048 11.776 0 25.6 5.12 37.376 9.728 24.064 9.728 61.44 0 80.384-4.096 8.192-14.336 20.48-22.528 27.136l-14.848 12.8 17.408 8.704c22.528 10.24 30.72 10.24 38.912-1.024 3.584-4.608 11.264-11.264 16.896-14.336 7.68-4.096 11.264-13.824 14.848-39.936 4.096-31.744 3.584-35.328-6.656-44.544-8.192-8.192-10.752-15.36-9.728-31.232 0.512-13.824-1.536-22.528-6.656-26.624-4.608-3.072-9.728-12.288-11.776-20.48-2.048-8.192-7.68-15.36-13.824-16.896-5.632-1.536-13.824-9.728-17.92-17.92-9.216-17.408-28.16-26.112-44.544-19.968-15.872 6.144-39.936 1.024-51.2-10.24-13.312-14.336-40.448-12.288-59.392 3.584z" fill="#66BF9F" p-id="8527"></path><path d="M57.856 51.2c-25.6 10.24-30.72 60.416-8.704 86.528 7.168 8.704 15.36 14.336 17.92 12.8 2.56-1.536 4.096-1.024 3.584 1.536-1.024 2.048 3.584 9.216 10.24 15.872 8.704 8.704 11.264 16.384 10.24 30.72-2.048 26.624-15.872 25.6-19.456-1.536-2.56-18.944-3.584-20.48-17.92-20.48C35.84 176.64 31.744 189.44 40.96 217.088c11.776 36.352 67.584 38.4 82.432 2.048 6.656-16.384 3.072-54.784-6.144-69.12-8.192-12.288-34.816-33.792-42.496-33.792-8.192 0-2.56-40.448 6.144-43.52 3.584-1.024 7.68 4.608 9.216 13.824 3.072 13.312 5.632 15.872 17.92 15.872 13.312 0 14.848-2.048 14.848-15.36 0-30.72-32.768-48.64-65.024-35.84zM642.048 50.688c-1.024 1.024-2.048 7.168-2.048 13.312 0 9.216 3.584 12.288 19.456 14.848 33.28 5.12 35.328 4.608 32.768-11.776-2.048-13.824-4.096-14.848-25.088-16.896-12.288-1.024-23.552-0.512-25.088 0.512zM979.456 50.176c-15.36 1.536-16.384 3.072-19.456 28.16-6.144 44.032-11.264 51.2-14.848 21.504-6.656-47.616-7.168-48.64-23.552-48.64-8.704 0-15.36 1.024-15.36 2.56s5.632 27.136 12.8 56.832c7.68 32.256 12.8 69.632 12.8 92.16V240.64h35.84v-37.376c0-23.552 5.632-57.856 15.36-95.744 8.192-32.256 14.336-58.88 13.824-58.88-0.512 0-8.192 0.512-17.408 1.536zM144.384 144.384l1.536 93.696 16.896 1.536 16.384 1.536v-39.936c0-24.576 3.072-45.056 7.168-54.272 4.096-7.68 5.632-13.824 2.56-13.824-2.56 0-4.608-12.8-4.608-28.16 0-26.624 5.12-35.328 13.312-22.528 1.536 3.072 3.072 14.336 3.072 24.576-0.512 17.92 0.512 19.456 14.848 19.968 14.848 0.512 14.848 0 14.848-29.184 0-39.936-7.68-46.592-53.248-46.592h-34.304l1.536 93.184zM242.688 59.904c1.536 5.12 5.12 19.968 8.704 33.28 4.096 16.896 8.704 24.576 16.384 26.624 6.144 1.536 11.776 1.536 12.8 0.512 1.024-1.024 0.512-16.896-1.536-35.328l-3.584-33.792h-17.92c-14.336 0-16.896 1.536-14.848 8.704zM293.888 87.552c-4.608 34.304-4.608 36.864 5.632 40.448 5.632 2.048 10.752 3.072 11.776 2.56 1.536-1.536 20.992-73.216 21.504-78.336 0-0.512-7.68-1.024-16.896-1.024h-16.896l-5.12 36.352zM455.68 72.192c0 19.456 1.024 20.992 11.776 18.432 6.144-2.048 20.992-4.608 33.28-6.656 19.456-3.072 21.504-4.608 21.504-17.92 0-14.848 0-14.848-33.28-14.848H455.68v20.992zM545.792 59.392c-1.536 4.608-3.072 12.8-3.072 18.432 0 10.752 2.048 10.752 59.392 3.072 2.56-0.512 4.096-7.168 3.072-15.36-2.048-13.824-3.584-14.336-29.184-14.336-19.968 0-27.648 2.048-30.208 8.192zM714.752 62.464c-6.144 23.552-3.584 28.16 20.992 37.888 13.824 5.632 26.112 10.24 28.16 11.264 2.56 1.024 4.096-12.288 4.096-29.184V51.2h-25.088c-21.504 0-25.088 1.536-28.16 11.264zM788.48 89.088c0 36.864 0.512 38.4 16.384 51.2 20.992 16.384 22.528 12.8 20.48-44.544l-1.536-44.544H788.48v37.888zM849.92 115.712v64l19.456 27.648c18.432 27.136 37.888 36.864 43.52 21.504 3.584-10.24-6.144-24.064-16.896-24.064-9.216 0-10.24-3.584-10.24-36.864 0-28.672-1.536-35.328-6.144-30.72-8.704 8.704-16.896 7.68-9.216-1.536 3.584-4.096 9.216-7.68 12.288-7.68 3.584 0 5.12-12.288 4.096-38.4l-2.048-38.4H849.92v64.512z m26.112 67.072c6.656 8.192 6.144 8.704-1.536 2.048-8.704-6.656-11.264-10.752-7.168-10.752 1.024 0 5.12 4.096 8.704 8.704zM353.28 99.84c-9.728 11.264 1.024 21.504 15.36 14.848 10.752-4.608 10.752-5.12 1.024-13.824-8.704-8.192-10.24-8.192-16.384-1.024zM9.728 525.824c-6.656 8.192-6.144 8.704 2.048 2.048 4.608-3.584 8.704-7.68 8.704-8.704 0-4.096-4.096-1.536-10.752 6.656zM265.216 612.864c3.072 1.024 9.216 1.024 12.8 0 3.072-1.536 0.512-2.56-6.656-2.56-7.168 0-9.728 1.024-6.144 2.56zM482.304 653.312c5.12 5.12 10.24 8.192 11.264 6.656 1.536-1.536-2.56-5.632-8.704-9.216-10.752-6.656-10.752-6.144-2.56 2.56zM782.848 889.344c-6.656 8.192-6.144 8.704 2.048 2.048 8.192-6.656 10.752-10.752 6.656-10.752-1.024 0-5.12 4.096-8.704 8.704zM99.84 957.44c-5.12 5.632-8.192 11.264-7.168 12.288 1.024 1.024 6.144-3.584 11.264-10.24 11.264-14.848 8.704-16.384-4.096-2.048zM21.504 1022.464c13.824 1.024 35.328 1.024 48.64 0 13.824-1.024 2.56-1.536-24.064-1.536s-37.888 0.512-24.576 1.536zM790.016 1022.464c44.544 1.024 116.224 1.024 158.72 0 43.008-0.512 6.656-1.536-80.896-1.536-87.04 0-122.368 1.024-77.824 1.536z" fill="#FFDF9F" p-id="8528"></path><path d="M450.048 110.592c-39.936 7.168-113.152 36.864-109.056 43.52 1.536 2.56-3.584 12.8-10.752 22.528-12.8 16.384-22.528 60.416-10.752 48.64 3.072-3.072 11.776-5.12 19.456-5.12 12.288 0 14.336 2.048 14.336 15.36 0 17.408 2.048 17.92 20.48 7.68 15.872-9.216 37.888-9.728 45.056-1.024 3.072 3.584 5.12 14.336 4.608 24.064-1.024 14.336-3.072 18.432-12.8 19.456-8.704 1.536-12.8-1.024-14.848-8.704-3.072-12.288-10.24-13.312-24.064-3.072-14.336 10.752-38.4 9.728-43.008-1.536-5.12-12.8-9.728 13.824-10.752 58.88-1.024 66.048 24.576 110.592 87.552 151.04 13.824 8.192 23.04 17.408 21.504 19.968-1.536 2.56 0 4.608 2.56 4.608 7.168 0 7.168 1.536-2.56-36.352-8.704-33.792-6.656-80.896 4.096-104.96 7.168-15.36 14.336-15.872 14.336-1.024 0 6.656 5.12 22.016 11.264 34.816l10.752 23.04 4.096-36.864c2.56-20.48 8.192-45.568 12.8-56.32l8.192-19.456 9.728 37.888c5.12 20.992 15.36 47.616 22.528 59.392 11.776 20.48 60.416 69.12 69.12 69.12 2.048 0 2.048-9.728-1.024-22.016-5.12-23.552-1.024-75.264 6.656-75.264 2.56 0 4.608 4.096 4.608 8.704 0 5.12 7.168 23.04 15.36 39.936l15.36 30.72-2.048-48.64c-3.072-58.88-17.408-107.52-44.032-152.064-22.016-35.328-20.992-42.496 1.536-14.336 65.024 81.92 78.848 243.712 31.744 369.664-7.68 19.456-9.728 31.232-6.144 29.184 20.48-11.776 53.248-43.008 65.536-62.976 16.896-26.112 19.968-20.48 4.608 9.216-11.776 23.552-32.768 45.056-71.168 74.24-15.872 11.264-29.184 22.528-30.208 24.576-1.024 2.56-4.608 4.096-7.168 4.096-3.072 0-21.504 11.776-40.448 26.112-40.448 30.72-59.392 61.44-62.976 101.376-1.536 15.36-3.584 28.16-4.096 28.672-1.024 1.024-10.24 6.144-20.48 11.264-18.432 10.24-18.944 10.24-10.24 22.528 32.256 47.104 104.96 61.952 174.592 35.84 80.384-30.72 139.776-123.904 138.24-217.6-0.512-35.84-8.192-76.8-9.216-50.176-1.536 30.72-13.312 77.824-19.968 77.824-5.12 0-6.144-3.584-3.584-11.264 1.536-6.656 4.608-48.64 6.144-93.696 2.048-64.512 1.024-93.696-6.144-135.68-11.264-67.072-30.208-134.144-46.08-162.816-7.168-12.288-9.728-21.504-6.144-20.48 20.48 6.656 60.416 118.784 70.144 197.632 3.072 24.576 12.8 66.56 20.992 93.184 19.968 65.536 24.576 88.064 28.16 146.944 2.56 41.984 1.536 54.784-6.656 79.36-5.632 16.384-8.704 29.696-6.656 29.696 2.048 0 11.776-6.144 20.992-14.336 15.872-12.288 17.408-15.872 14.848-31.744-2.048-9.728-5.12-23.552-7.68-30.72-3.584-11.264-3.072-11.776 4.608-5.632 18.944 15.872 27.648 73.216 15.36 105.472-3.072 8.704-2.048 8.704 10.24-2.56 40.448-36.352 52.736-117.248 26.624-168.448-4.096-7.68-18.432-27.136-31.744-41.984-30.72-35.328-52.736-82.432-55.808-117.76l-2.56-27.648 8.192 25.6c14.848 49.664 26.112 66.56 66.56 102.4 53.248 47.104 72.704 67.584 83.968 89.6 10.24 20.48 19.968 63.488 22.016 97.28l1.024 23.04 9.728-17.408c5.12-9.728 12.288-35.328 16.384-57.344 11.776-68.096 0.512-104.448-71.168-231.424-22.528-38.912-39.424-71.68-38.4-73.216 1.536-1.024 13.312 15.36 27.136 36.352 13.824 20.992 25.6 38.4 26.112 38.4 0.512 0-5.632-25.6-13.824-56.832-7.68-31.744-16.896-73.216-20.48-92.672l-6.144-35.328-16.384 15.872c-11.776 11.264-15.872 19.456-14.336 27.648 1.536 7.68-1.536 15.872-8.704 22.528-39.424 36.864-102.912-5.632-128-85.504-12.8-40.96-12.8-67.072 0-92.672 11.264-22.016 26.624-29.184 50.176-23.04 7.68 2.048 24.064 4.608 36.352 6.144l22.528 2.56-10.752-15.36c-6.144-8.192-9.728-16.384-8.704-18.432 1.536-1.536 1.024-2.048-0.512-0.512-2.048 1.024-15.36-8.192-29.696-20.992-33.28-30.208-68.608-50.688-110.592-64-40.96-13.312-157.184-16.896-210.432-6.656z m137.728 31.744c15.872 7.68 38.912 23.552 51.712 35.84 25.6 24.064 20.992 23.552-14.848-2.048-27.648-19.456-49.664-30.72-83.968-43.52l-26.112-9.728 22.528 2.56c12.288 1.536 35.328 9.216 50.688 16.896zM793.6 217.6c-3.584 4.096-8.704 7.68-11.264 7.68-3.072 0-2.56-3.584 1.024-7.68s8.704-7.68 11.264-7.68c3.072 0 2.56 3.584-1.024 7.68z m-82.432 572.416c-16.896 52.224-57.344 87.04-119.808 103.424-29.696 7.68-66.048 6.656-71.68-2.56-1.536-2.048 11.776-5.12 29.696-6.144 45.056-3.072 85.504-23.04 120.32-59.392 15.36-15.872 32.256-38.912 37.888-51.2 14.336-32.256 16.384-23.04 3.584 15.872zM278.528 195.584l-14.848 16.896 16.896-14.848c15.36-14.336 18.944-18.432 14.848-18.432-1.024 0-8.192 7.68-16.896 16.384zM247.808 226.304l-9.728 11.776 11.776-9.728c10.752-9.216 13.824-13.312 9.728-13.312-1.024 0-6.144 5.12-11.776 11.264z" fill="#FFB8B8" p-id="8529"></path><path d="M299.52 273.92c-17.408 14.336-33.28 16.896-33.28 5.12 0-12.8-6.656-8.704-25.6 15.36-18.432 23.04-33.792 29.184-39.424 14.848-3.072-7.68-27.136 52.736-27.136 68.096 0 4.096-6.144 19.968-13.312 35.328-15.36 32.768-13.312 43.008 3.072 13.824l10.752-19.456-3.072 17.408c-1.536 9.728-13.824 34.816-28.16 56.32-91.136 139.776-99.328 158.208-96.256 217.6 1.536 31.232 5.632 47.616 15.36 67.072 11.264 21.504 13.824 24.064 17.408 15.872 2.048-5.632 11.264-16.896 20.992-25.088 16.384-14.336 16.384-14.848 8.704-30.208-31.744-61.44 3.584-183.808 92.16-317.44 16.384-24.576 25.6-31.744 20.48-15.872-2.56 7.68-2.048 7.68 2.048 1.536 3.072-4.096 4.096-9.216 2.56-11.264-3.584-6.656 8.704-19.968 15.36-15.872 3.072 1.536 3.584 0.512 1.536-3.072-2.048-3.072-5.632-4.608-7.68-3.584-4.608 3.072 12.8-65.536 19.456-77.824 4.096-6.656 5.12-2.56 5.632 17.408 0 14.336 1.536 36.864 3.072 49.664l3.584 23.552 13.824-18.944c7.68-10.752 15.36-29.696 17.408-42.496 2.048-12.288 6.656-29.184 10.752-36.864 3.584-7.68 6.656-13.824 6.144-13.824-0.512 0.512-7.68 6.144-16.384 12.8zM294.4 353.28c-1.536 2.56-0.512 5.12 2.048 5.12 3.072 0 5.632-2.56 5.632-5.12 0-3.072-1.024-5.12-2.048-5.12-1.536 0-4.096 2.048-5.632 5.12zM486.4 372.224c0 6.656 2.56 11.776 5.12 11.776 6.656 0 6.656-5.632 0-15.36-4.096-6.144-5.12-5.632-5.12 3.584z" fill="#FFB8B8" p-id="8530"></path><path d="M241.152 381.952c0 5.632 1.536 7.168 3.072 3.072 1.536-3.584 1.024-8.192-0.512-9.728-1.536-2.048-3.072 1.024-2.56 6.656zM302.592 392.704c3.584 6.144 7.68 10.24 9.216 8.704 1.536-1.024-1.536-6.144-6.656-11.264-8.704-8.192-9.216-8.192-2.56 2.56zM486.912 428.032c0 5.632 1.536 7.168 3.072 3.072 1.536-3.584 1.024-8.192-0.512-9.728-1.536-2.048-3.072 1.024-2.56 6.656zM210.432 433.152c0 5.632 1.536 7.168 3.072 3.072 1.536-3.584 1.024-8.192-0.512-9.728-1.536-2.048-3.072 1.024-2.56 6.656zM340.48 450.56c5.12 5.632 10.24 10.24 11.776 10.24 1.536 0-1.536-4.608-6.656-10.24s-10.24-10.24-11.776-10.24c-1.536 0 1.536 4.608 6.656 10.24zM537.6 458.24c9.728 9.728 18.432 17.92 19.968 17.92 1.536 0-5.12-8.192-14.848-17.92s-18.432-17.92-19.968-17.92c-1.536 0 5.12 8.192 14.848 17.92zM489.984 455.68c-1.536 5.632-0.512 10.24 2.048 10.24s4.608-4.608 4.608-10.24-1.024-10.24-2.048-10.24-3.072 4.608-4.608 10.24zM203.776 465.92c-1.536 11.264 0.512 17.92 8.192 24.576 10.24 8.192 10.24 8.192 3.072-1.024-4.096-5.12-6.656-15.872-6.144-24.064 2.048-19.456-2.56-18.944-5.12 0.512zM440.832 468.992c0 5.632 1.536 7.168 3.072 3.072 1.536-3.584 1.024-8.192-0.512-9.728-1.536-2.048-3.072 1.024-2.56 6.656zM302.08 467.968c0 1.024 4.096 5.12 9.216 8.704 7.68 6.656 8.192 6.144 1.536-2.048S302.08 463.872 302.08 467.968zM270.336 474.624c3.072 1.024 9.216 1.024 12.8 0 3.072-1.536 0.512-2.56-6.656-2.56-7.168 0-9.728 1.024-6.144 2.56zM609.28 475.648c0 2.56 2.048 6.144 5.12 8.192 2.56 1.536 3.584 6.144 2.048 10.24-2.048 4.096-5.632 6.144-8.704 4.096-3.072-2.048-3.584-0.512-1.024 3.584 3.072 5.12 5.632 4.608 10.752-2.56 6.656-8.704 7.168-8.704 11.776 3.072 2.56 6.656 5.12 9.216 5.12 5.12 0.512-3.584-5.12-13.312-12.288-22.016-7.168-8.192-12.8-12.8-12.8-9.728zM577.024 486.912c3.584 3.584 7.68 5.12 9.216 3.584 1.536-1.536-1.024-4.608-6.144-6.144-7.168-3.072-7.68-2.56-3.072 2.56zM199.68 517.632c0.512 16.384 3.584 31.744 7.68 37.376 7.168 9.728 7.68 9.216 7.68-7.68 0-11.776-1.536-15.36-4.608-10.24-2.56 4.096-4.608-2.048-4.608-17.408-0.512-13.312-2.048-25.6-3.584-27.136-1.536-1.536-2.56 9.728-2.56 25.088zM447.488 514.048c11.776 9.728 18.432 10.24 18.432 2.56 0-2.56 2.56-3.584 6.144-1.536 3.584 2.56 4.096 1.536 1.536-2.56-2.56-4.608-5.12-5.12-9.216-1.024-3.584 3.584-8.704 3.584-15.872 0-10.24-5.12-10.24-5.12-1.024 2.56zM625.152 535.552c0 5.632 1.536 7.168 3.072 3.072 1.536-3.584 1.024-8.192-0.512-9.728-1.536-2.048-3.072 1.024-2.56 6.656zM598.016 553.984c3.072 3.072 9.216 4.096 14.336 3.072 7.168-1.536 6.144-2.56-4.608-5.12-9.728-1.536-12.8-1.024-9.728 2.048zM126.464 602.624c-10.24 42.496-11.264 81.92-3.072 109.056 5.632 18.944 6.144 18.944 15.872 9.216 6.144-6.144 13.312-8.704 19.968-6.656 12.288 4.096 12.288 4.608-4.096-31.232-9.728-21.504-14.336-41.984-16.384-73.216l-3.584-44.032-8.704 36.864zM196.096 586.24c-14.848 49.152-11.264 73.728 12.288 95.232l13.824 12.288-13.824-16.896c-18.432-23.04-17.408-28.16 4.096-17.92 16.384 7.68 18.944 7.68 38.4-1.024 28.672-12.8 35.84-43.52 9.728-43.52-5.12 0-13.824-2.048-18.944-4.608-4.608-2.56-12.8-6.144-17.408-7.68-5.12-1.536-9.216-7.68-9.216-13.312 0-6.144-2.048-9.728-4.608-7.68-2.56 1.536-5.632-1.536-6.656-6.144-1.024-5.632-4.096-1.024-7.68 11.264zM611.84 573.44c1.536 2.56 4.096 5.12 5.632 5.12 1.024 0 2.048-2.56 2.048-5.12 0-3.072-2.56-5.12-5.632-5.12-2.56 0-3.584 2.048-2.048 5.12zM339.456 609.28c0.512 5.632 2.56 10.24 4.608 10.24 5.632 0 5.12-14.336-0.512-17.92-3.072-1.536-4.608 2.048-4.096 7.68zM597.504 612.864c-2.048 1.536-3.584 6.656-3.584 11.264 0.512 6.656 1.536 6.656 5.632-1.024 5.632-9.728 4.096-16.896-2.048-10.24zM582.144 647.68c-2.048 4.096-8.704 7.68-15.872 7.68-7.168 0-14.336 2.048-15.872 5.12-1.536 3.072 0.512 3.584 6.144 2.048 8.192-2.56 8.192-2.048-0.512 3.072-7.168 5.12-10.24 5.12-13.824-0.512-3.072-5.632-4.608-5.12-7.68 2.56-2.048 5.12-5.12 7.168-6.656 4.608-1.536-2.56-15.36-7.68-30.72-11.264-22.528-5.632-28.16-5.632-31.232 0-7.168 10.752 7.168 37.376 24.064 46.08l16.384 8.192-13.824 14.336c-7.68 8.192-2.048 4.096 12.288-8.704s34.816-29.184 46.08-36.352c19.968-12.288 41.472-37.888 36.352-42.496-1.024-1.536-3.584 1.024-5.12 5.632zM377.856 776.704c6.144 1.024 15.36 1.024 20.48 0 4.608-1.536-0.512-2.56-11.776-2.048-11.264 0-15.36 1.024-8.704 2.048zM453.12 778.24c-8.192 3.584-8.704 4.608-1.536 4.608 4.608 0.512 10.24-2.048 11.776-4.608 3.584-5.632 3.584-5.632-10.24 0zM385.024 794.112c1.024 3.584 6.144 6.656 10.752 7.68 11.776 1.536 10.752-1.536-2.048-8.704-8.704-4.096-10.24-4.096-8.704 1.024zM409.6 805.888c0" fill="#FFB8B8" p-id="8531"></path></svg>