<?xml version="1.0" standalone="no"?><!DOCTYPE svg PUBLIC "-//W3C//DTD SVG 1.1//EN" "http://www.w3.org/Graphics/SVG/1.1/DTD/svg11.dtd"><svg t="1766107065632" class="icon" viewBox="0 0 1024 1024" version="1.1" xmlns="http://www.w3.org/2000/svg" p-id="2251" xmlns:xlink="http://www.w3.org/1999/xlink" width="200" height="200"><path d="M328.646478 1.736919S224.648448 39.949139 208.799061 47.765275s-16.717846 28.44205-30.396084 76.641555S48.134045 591.420951 45.311551 607.921683s-3.473838 26.488016 17.369191 35.389726 76.641555 33.652807 84.891921 36.909531 21.711489 3.039608 32.567233-21.711489 103.998031-244.037133 103.99803-244.037132v131.571621a243.602903 243.602903 0 0 1-24.968211 113.551086C230.510549 716.479126 100.241617 938.587655 100.241617 938.587655s2.388264 14.112468 24.099753 24.968212a144.3814 144.3814 0 0 0 72.733487 24.533982c30.830314 0 102.043997-19.97457 132.005851-13.244008s46.679701 32.784348 108.557443 41.903173 127.012209 11.289974 163.704625-3.256723 86.845955-45.377011 117.676268-37.343761 89.451333 19.97457 124.40683 9.118826 89.017104-34.087037 83.372117-43.422978-172.38922-256.846911-180.205356-343.041521-8.033251-183.027849-8.033251-183.027849 102.912456 230.14178 108.557444 243.385788 16.283616 24.533982 34.955496 16.283616 81.200968-33.652807 86.845955-38.21222 14.112468-5.862102 6.730561-35.389726-131.354506-484.817542-147.203893-525.635141S699.912934 0 699.912934 0 608.290452 263.794587 516.016625 268.78823 330.383397 25.836672 328.646478 1.736919z" fill="#2c2c2c" p-id="2252"></path></svg>