<?xml version="1.0" standalone="no"?><!DOCTYPE svg PUBLIC "-//W3C//DTD SVG 1.1//EN" "http://www.w3.org/Graphics/SVG/1.1/DTD/svg11.dtd"><svg t="1766036409318" class="icon" viewBox="0 0 1024 1024" version="1.1" xmlns="http://www.w3.org/2000/svg" p-id="47467" xmlns:xlink="http://www.w3.org/1999/xlink" width="200" height="200"><path d="M322.56 493.568c0 28.672-19.456 316.416 260.096 102.4-260.096 148.48-260.096-102.4-260.096-102.4zM284.672 438.272c-9.216 0-27.648 9.216-27.648 27.648s18.432 36.864 27.648 36.864c18.432 0 28.672-18.432 27.648-36.864 0-18.432-9.216-27.648-27.648-27.648zM648.192 550.912c-18.432 0-36.864 18.432-36.864 36.864s18.432 36.864 36.864 36.864c9.216 0 27.648-19.456 27.648-36.864 0-18.432-18.432-36.864-27.648-36.864z" fill="#2c2c2c" p-id="47468"></path><path d="M832.512 51.2H191.488C113.664 51.2 51.2 113.664 51.2 191.488v641.024C51.2 910.336 113.664 972.8 191.488 972.8h641.024C910.336 972.8 972.8 910.336 972.8 832.512V191.488C972.8 113.664 910.336 51.2 832.512 51.2z m6.144 507.904S747.52 633.856 675.84 652.288V829.44s32.768 111.616-134.144 26.624l-97.28-93.184-102.4 74.752s-102.4 73.728-130.048-65.536c0 0 0-223.232 27.648-232.448-27.648-36.864-93.184-120.832-93.184-250.88 0 0-9.216-111.616 148.48-18.432 56.32 27.648 65.536 27.648 93.184 0 18.432-27.648 101.376-111.616 157.696-120.832 0 0 83.968-27.648 102.4 93.184l18.432 120.832s-18.432 65.536 130.048 65.536c0 0 162.816 0 41.984 130.048z" fill="#2c2c2c" p-id="47469"></path><path d="M508.928 380.928c0-27.648-28.672-64.512-74.752-46.08-47.104 9.216-65.536 93.184-65.536 93.184-27.648 149.504 93.184 83.968 93.184 83.968s9.216 102.4 83.968 56.32c46.08-36.864 55.296-130.048 55.296-130.048 9.216-120.832-93.184-56.32-92.16-57.344zM480.256 419.84c-9.216 18.432-27.648 36.864-36.864 36.864-18.432-10.24-18.432-28.672-9.216-56.32 9.216-18.432 18.432-36.864 36.864-36.864 9.216 10.24 18.432 28.672 9.216 56.32z m93.184 36.864c-9.216 18.432-18.432 27.648-27.648 27.648-9.216-9.216-18.432-27.648-9.216-46.08 9.216-18.432 18.432-27.648 27.648-27.648 18.432 0 18.432 27.648 9.216 46.08z" fill="#2c2c2c" p-id="47470"></path></svg>