<?xml version="1.0" standalone="no"?><!DOCTYPE svg PUBLIC "-//W3C//DTD SVG 1.1//EN" "http://www.w3.org/Graphics/SVG/1.1/DTD/svg11.dtd"><svg t="1766036068557" class="icon" viewBox="0 0 1024 1024" version="1.1" xmlns="http://www.w3.org/2000/svg" p-id="41118" xmlns:xlink="http://www.w3.org/1999/xlink" width="200" height="200"><path d="M58.368 255.488C26.112 255.488 0 281.6 0 313.856v629.248c0 31.744 26.112 58.368 58.368 58.368h907.776c31.744 0 58.368-26.112 58.368-58.368V313.856c0-31.744-26.112-58.368-58.368-58.368H58.368zM730.624 552.96c-28.16 0-50.688-23.04-50.688-51.2s23.04-50.688 51.2-50.688 50.688 23.04 50.688 51.2c-0.512 27.648-23.04 50.688-51.2 50.688z m116.736 311.808h-670.72c-20.992 0-37.888-17.408-37.888-38.4 0-8.704 3.072-17.408 8.704-24.064l184.832-224.768c13.312-16.384 37.376-18.432 53.76-5.12 2.048 1.536 3.584 3.072 5.12 5.12l164.864 200.192c13.312 16.384 37.376 18.432 53.248 5.12 2.048-1.536 3.584-3.584 5.12-5.12l91.648-111.104c13.312-16.384 37.376-18.432 53.76-5.12 2.048 1.536 3.584 3.072 5.12 5.12l111.616 136.192c13.312 16.384 11.264 39.936-5.12 53.76-6.656 5.12-15.36 8.192-24.064 8.192zM184.32 139.264h655.36v58.368H184.32V139.264zM280.064 23.04h464.384v58.368H280.064V23.04z" fill="#2c2c2c" p-id="41119"></path></svg>